<svg xmlns="http://www.w3.org/2000/svg" width="274" height="274" viewBox="0 0 274 274" fill="none"><path d="M193 137C193 167.927 167.927 193 137 193C106.072 193 81 167.927 81 137C81 106.072 106.072 81 137 81C167.927 81 193 106.072 193 137ZM193 137V158C193 177.33 208.67 193 228 193C247.33 193 263 177.33 263 158V137C263 67.4122 206.588 11 137 11C67.4122 11 11 67.4122 11 137C11 206.588 67.4122 263 137 263H193" stroke="#ABABAB" stroke-width="21" stroke-linecap="round" stroke-linejoin="round"></path></svg>