<svg xmlns="http://www.w3.org/2000/svg" width="164" height="128" viewBox="0 0 164 128" fill="none"><g clip-path="url(#clip0_65_96)"><path fill-rule="evenodd" clip-rule="evenodd" d="M120.306 127.873C117.692 127.873 115.254 126.648 113.707 124.576H81.3048C80.8979 124.576 80.5677 124.243 80.5677 123.831V122.014H82.0418V123.086H114.085C114.33 123.086 114.557 123.208 114.695 123.412C115.948 125.273 118.046 126.383 120.306 126.383C122.567 126.383 124.664 125.273 125.917 123.412C126.055 123.208 126.283 123.086 126.527 123.086H158.539V73.7638H154.904V72.2741H159.276C159.684 72.2741 160.013 72.6076 160.013 73.0189V123.831C160.013 124.243 159.684 124.576 159.276 124.576H126.905C125.359 126.648 122.921 127.873 120.306 127.873Z" fill="#E1E1E1"></path><path fill-rule="evenodd" clip-rule="evenodd" d="M119.916 123.432C118.318 123.432 116.842 122.66 115.966 121.367L115.146 120.157H85.6768C85.2698 120.157 84.9398 119.824 84.9398 119.413V114.258H86.4139V118.668H115.535C115.778 118.668 116.006 118.789 116.143 118.992L117.182 120.525C117.783 121.412 118.805 121.942 119.916 121.942C121.026 121.942 122.048 121.412 122.648 120.525L123.688 118.992C123.825 118.789 124.053 118.668 124.296 118.668H153.438V114.258H154.912V119.413C154.912 119.824 154.582 120.157 154.175 120.157H124.684L123.864 121.367C122.989 122.66 121.513 123.432 119.916 123.432Z" fill="#E1E1E1"></path><path fill-rule="evenodd" clip-rule="evenodd" d="M120.847 120.427H119.373C119.373 117.436 116.964 115.002 114.005 115.002H85.6768C85.2698 115.002 84.9398 114.669 84.9398 114.258V111.026H86.4139V113.513H114.005C117.778 113.513 120.847 116.615 120.847 120.427Z" fill="#E1E1E1"></path><path fill-rule="evenodd" clip-rule="evenodd" d="M120.663 74.0336V116.39C121.907 114.648 123.932 113.513 126.215 113.513H153.438V68.609H126.031C123.071 68.609 120.663 71.0422 120.663 74.0336ZM120.847 120.427H119.373C119.373 120.152 119.389 119.879 119.42 119.612C119.278 119.476 119.189 119.284 119.189 119.07V74.0336C119.189 71.0422 116.781 68.609 113.821 68.609H99.3132V67.1194H113.821C116.483 67.1194 118.796 68.6642 119.926 70.9135C121.056 68.6642 123.368 67.1194 126.031 67.1194H154.175C154.582 67.1194 154.912 67.4528 154.912 67.8642V114.258C154.912 114.669 154.582 115.002 154.175 115.002H126.215C123.255 115.002 120.847 117.436 120.847 120.427Z" fill="#E1E1E1"></path><path fill-rule="evenodd" clip-rule="evenodd" d="M92.2354 86.2829H113.367V84.7932H92.2354V86.2829Z" fill="#E1E1E1"></path><path fill-rule="evenodd" clip-rule="evenodd" d="M92.2354 91.4374H113.367V89.9477H92.2354V91.4374Z" fill="#E1E1E1"></path><path fill-rule="evenodd" clip-rule="evenodd" d="M126.484 98.0653H149.074V96.5756H126.484V98.0653Z" fill="#E1E1E1"></path><path fill-rule="evenodd" clip-rule="evenodd" d="M126.484 103.22H138.872V101.73H126.484V103.22Z" fill="#E1E1E1"></path><path fill-rule="evenodd" clip-rule="evenodd" d="M126.484 108.375H149.074V106.885H126.484V108.375Z" fill="#E1E1E1"></path><path fill-rule="evenodd" clip-rule="evenodd" d="M114.833 100.266H113.359V98.0653H111.182V96.5756H114.096C114.503 96.5756 114.833 96.9091 114.833 97.3204V100.266Z" fill="#E1E1E1"></path><path fill-rule="evenodd" clip-rule="evenodd" d="M94.4738 105.816L93.4318 104.763L98.7923 99.3455L99.8344 100.399L94.4738 105.816Z" fill="#E1E1E1"></path><path fill-rule="evenodd" clip-rule="evenodd" d="M105.421 104.213L101.816 100.571L102.859 99.5174L106.463 103.16L105.421 104.213Z" fill="#E1E1E1"></path><path fill-rule="evenodd" clip-rule="evenodd" d="M108.712 103.339L107.67 102.286L112.838 97.0642L113.88 98.1173L108.712 103.339Z" fill="#E1E1E1"></path><path fill-rule="evenodd" clip-rule="evenodd" d="M100.98 98.8017C100.583 98.8017 100.259 99.1282 100.259 99.5297C100.259 99.931 100.583 100.258 100.98 100.258C101.377 100.258 101.7 99.931 101.7 99.5297C101.7 99.1282 101.377 98.8017 100.98 98.8017ZM100.98 101.747C99.7699 101.747 98.7854 100.753 98.7854 99.5297C98.7854 98.3072 99.7699 97.3121 100.98 97.3121C102.19 97.3121 103.174 98.3072 103.174 99.5297C103.174 100.753 102.19 101.747 100.98 101.747Z" fill="#E1E1E1"></path><path fill-rule="evenodd" clip-rule="evenodd" d="M106.809 103.22C106.412 103.22 106.089 103.547 106.089 103.948C106.089 104.35 106.412 104.676 106.809 104.676C107.207 104.676 107.53 104.35 107.53 103.948C107.53 103.547 107.207 103.22 106.809 103.22ZM106.809 106.166C105.599 106.166 104.615 105.171 104.615 103.948C104.615 102.726 105.599 101.73 106.809 101.73C108.019 101.73 109.004 102.726 109.004 103.948C109.004 105.171 108.019 106.166 106.809 106.166Z" fill="#E1E1E1"></path><path fill-rule="evenodd" clip-rule="evenodd" d="M92.9639 105.43C92.5666 105.43 92.2435 105.756 92.2435 106.158C92.2435 106.559 92.5666 106.885 92.9639 106.885C93.3612 106.885 93.6843 106.559 93.6843 106.158C93.6843 105.756 93.3612 105.43 92.9639 105.43ZM92.9639 108.375C91.7539 108.375 90.7694 107.38 90.7694 106.158C90.7694 104.935 91.7539 103.94 92.9639 103.94C94.1739 103.94 95.1584 104.935 95.1584 106.158C95.1584 107.38 94.1739 108.375 92.9639 108.375Z" fill="#E1E1E1"></path><path fill-rule="evenodd" clip-rule="evenodd" d="M127.95 85.5296H147.609V75.9728H127.95V85.5296ZM148.346 87.019H127.213C126.806 87.019 126.476 86.6858 126.476 86.2745V75.228C126.476 74.8166 126.806 74.4832 127.213 74.4832H148.346C148.753 74.4832 149.083 74.8166 149.083 75.228V86.2745C149.083 86.6858 148.753 87.019 148.346 87.019Z" fill="#E1E1E1"></path><path fill-rule="evenodd" clip-rule="evenodd" d="M143.974 92.9105H146.159V91.4209H143.974V92.9105Z" fill="#E1E1E1"></path><path fill-rule="evenodd" clip-rule="evenodd" d="M139.601 92.9105H141.787V91.4209H139.601V92.9105Z" fill="#E1E1E1"></path><path fill-rule="evenodd" clip-rule="evenodd" d="M135.229 92.9105H137.415V91.4209H135.229V92.9105Z" fill="#E1E1E1"></path><path fill-rule="evenodd" clip-rule="evenodd" d="M130.857 92.9105H133.043V91.4209H130.857V92.9105Z" fill="#E1E1E1"></path><path fill-rule="evenodd" clip-rule="evenodd" d="M126.484 92.9105H128.67V91.4209H126.484V92.9105Z" fill="#E1E1E1"></path><path fill-rule="evenodd" clip-rule="evenodd" d="M109.724 81.1278H111.91V79.6382H109.724V81.1278Z" fill="#E1E1E1"></path><path fill-rule="evenodd" clip-rule="evenodd" d="M105.352 81.1278H107.538V79.6382H105.352V81.1278Z" fill="#E1E1E1"></path><path fill-rule="evenodd" clip-rule="evenodd" d="M100.98 81.1278H103.166V79.6382H100.98V81.1278Z" fill="#E1E1E1"></path><path fill-rule="evenodd" clip-rule="evenodd" d="M96.6075 81.1278H98.7937V79.6382H96.6075V81.1278Z" fill="#E1E1E1"></path><path fill-rule="evenodd" clip-rule="evenodd" d="M92.2354 81.1278H94.4213V79.6382H92.2354V81.1278Z" fill="#E1E1E1"></path><path fill-rule="evenodd" clip-rule="evenodd" d="M42.2136 123.23C42.0367 123.23 41.8637 123.166 41.728 123.046L23.318 106.759L24.2888 105.638L41.9994 121.306L60.0135 87.0548L7.48614 90.789L18.1632 100.295L17.1887 101.413L5.1899 90.73C4.96708 90.5315 4.88386 90.2171 4.97904 89.9327C5.07422 89.6481 5.329 89.4493 5.62552 89.4283L61.2369 85.4744C61.5017 85.4557 61.7606 85.5844 61.9068 85.8118C62.0527 86.0389 62.0652 86.328 61.9395 86.567L42.8645 122.835C42.7588 123.036 42.568 123.177 42.3469 123.218C42.3025 123.227 42.2578 123.23 42.2136 123.23Z" fill="#E1E1E1"></path><path fill-rule="evenodd" clip-rule="evenodd" d="M19.1051 116.461C18.9669 116.461 18.83 116.422 18.7107 116.346C18.5186 116.223 18.3934 116.017 18.3715 115.788L16.945 100.924C16.9118 100.578 17.1197 100.255 17.446 100.145L61.0564 85.5107L61.521 86.9246L18.4688 101.372L19.7474 114.692L29.5081 111.15L30.0062 112.551L19.354 116.417C19.2732 116.447 19.189 116.461 19.1051 116.461Z" fill="#E1E1E1"></path><path fill-rule="evenodd" clip-rule="evenodd" d="M19.7601 116.058L18.4501 115.375L23.4567 105.575C23.5282 105.435 23.6419 105.322 23.7813 105.251L60.0848 86.8511L60.7455 88.1829L24.6564 106.474L19.7601 116.058Z" fill="#E1E1E1"></path><path fill-rule="evenodd" clip-rule="evenodd" d="M4.29214 116.505L3.71448 115.134L13.1223 111.085L13.6999 112.455L4.29214 116.505Z" fill="#E1E1E1"></path><path fill-rule="evenodd" clip-rule="evenodd" d="M4.81852 107.847L4.29114 106.457L13.3831 102.934L13.9108 104.325L4.81852 107.847Z" fill="#E1E1E1"></path><path fill-rule="evenodd" clip-rule="evenodd" d="M24.5812 122.581L24.0038 121.21L29.1627 118.989L29.7404 120.36L24.5812 122.581Z" fill="#E1E1E1"></path><path fill-rule="evenodd" clip-rule="evenodd" d="M122.228 58.8048C121.812 58.8048 121.415 58.9555 121.1 59.2354C120.756 59.5407 120.551 59.9629 120.521 60.4244C120.492 60.8856 120.642 61.3305 120.944 61.678C121.246 62.0248 121.664 62.2327 122.12 62.262C122.576 62.2943 123.017 62.1402 123.361 61.8351C123.704 61.53 123.91 61.108 123.939 60.6466C123.968 60.1854 123.818 59.74 123.516 59.3927C123.215 59.0455 122.797 58.8381 122.34 58.8085C122.303 58.806 122.265 58.8048 122.228 58.8048ZM122.235 63.7556C122.165 63.7556 122.096 63.7531 122.025 63.7487C121.176 63.6934 120.399 63.3072 119.837 62.6613C119.275 62.0154 118.996 61.187 119.05 60.3284C119.105 59.4702 119.487 58.6844 120.127 58.1167C120.766 57.5487 121.585 57.2705 122.435 57.3218C123.284 57.377 124.062 57.7633 124.623 58.4092C125.185 59.0554 125.465 59.884 125.41 60.7425C125.355 61.6008 124.973 62.3861 124.334 62.9541C123.748 63.4749 123.009 63.7556 122.235 63.7556Z" fill="#E1E1E1"></path><path fill-rule="evenodd" clip-rule="evenodd" d="M132.045 51.1781C130.51 51.1781 129.215 52.3865 129.115 53.9556C129.011 55.5885 130.241 57.0032 131.858 57.1082C133.475 57.2209 134.873 55.9703 134.977 54.3369C135.028 53.5457 134.77 52.7819 134.253 52.1865C133.734 51.5912 133.018 51.2353 132.235 51.1842C132.171 51.18 132.108 51.1781 132.045 51.1781ZM132.049 58.604C131.954 58.604 131.859 58.6013 131.763 58.5951C129.335 58.4368 127.488 56.3126 127.644 53.8594C127.801 51.4072 129.902 49.5451 132.33 49.6975C133.506 49.774 134.582 50.3089 135.36 51.2032C136.137 52.0975 136.524 53.2445 136.448 54.4328C136.298 56.7886 134.353 58.604 132.049 58.604Z" fill="#E1E1E1"></path><path fill-rule="evenodd" clip-rule="evenodd" d="M134.407 43.6246C134.459 43.6246 134.511 43.63 134.562 43.6409C134.759 43.6838 134.93 43.8063 135.036 43.9805C136.561 46.499 139.214 48.0025 142.131 48.0025C144.85 48.0025 147.402 46.6529 148.959 44.3923C149.137 44.1344 149.456 44.0162 149.756 44.0988C150.603 44.3297 151.478 44.4468 152.355 44.4468C157.853 44.4468 162.327 39.9266 162.327 34.3703C162.327 32.1643 161.633 30.0694 160.32 28.3117C160.145 28.0732 160.125 27.7504 160.272 27.4911C160.831 26.5093 161.128 25.3958 161.128 24.2704C161.128 20.7032 158.256 17.8009 154.726 17.8009C153.934 17.8009 153.151 17.9521 152.399 18.249C152.212 18.3225 152.004 18.3161 151.823 18.2322C151.64 18.1476 151.5 17.9923 151.434 17.8014C150.145 14.0719 146.652 11.5661 142.743 11.5661C139.523 11.5661 136.59 13.2235 134.899 15.9998C134.747 16.2479 134.466 16.3845 134.181 16.348C133.682 16.2858 133.213 16.2553 132.749 16.2553C126.407 16.2553 121.248 21.469 121.248 27.8776C121.248 30.9183 122.405 33.795 124.505 35.9774C124.695 36.1749 124.762 36.462 124.679 36.7239C124.483 37.3402 124.384 37.9788 124.384 38.6217C124.384 42.0469 127.141 44.8333 130.531 44.8333C131.772 44.8333 132.969 44.4602 133.991 43.7543C134.115 43.669 134.26 43.6246 134.407 43.6246ZM142.131 49.4921C138.944 49.4921 136.025 47.9679 134.186 45.3793C133.069 45.9986 131.819 46.3229 130.531 46.3229C126.329 46.3229 122.91 42.8682 122.91 38.6217C122.91 37.9726 122.991 37.3274 123.153 36.698C120.971 34.2776 119.774 31.1627 119.774 27.8776C119.774 20.6475 125.595 14.7656 132.749 14.7656C133.121 14.7656 133.506 14.7839 133.898 14.8196C135.892 11.8406 139.164 10.0765 142.743 10.0765C147.034 10.0765 150.891 12.6779 152.562 16.622C153.268 16.4158 153.994 16.3115 154.726 16.3115C159.069 16.3115 162.602 19.8819 162.602 24.2704C162.602 25.4944 162.317 26.7061 161.777 27.8044C163.103 29.7397 163.801 31.999 163.801 34.3703C163.801 40.7477 158.666 45.9365 152.355 45.9365C151.518 45.9365 150.683 45.8435 149.866 45.6595C148.016 48.0688 145.161 49.4921 142.131 49.4921Z" fill="#E1E1E1"></path><path fill-rule="evenodd" clip-rule="evenodd" d="M131.691 30.7888H152.703V29.2992H131.691V30.7888Z" fill="#E1E1E1"></path><path fill-rule="evenodd" clip-rule="evenodd" d="M131.691 36.0972H143.948V34.6076H131.691V36.0972Z" fill="#E1E1E1"></path><path fill-rule="evenodd" clip-rule="evenodd" d="M148.033 36.0972H151.535V34.6076H148.033V36.0972Z" fill="#E1E1E1"></path><path fill-rule="evenodd" clip-rule="evenodd" d="M149.2 26.0703H150.951V24.5807H149.2V26.0703Z" fill="#E1E1E1"></path><path fill-rule="evenodd" clip-rule="evenodd" d="M145.699 26.0703H147.45V24.5807H145.699V26.0703Z" fill="#E1E1E1"></path><path fill-rule="evenodd" clip-rule="evenodd" d="M142.197 26.0703H143.948V24.5807H142.197V26.0703Z" fill="#E1E1E1"></path><path fill-rule="evenodd" clip-rule="evenodd" d="M138.695 26.0703H140.446V24.5807H138.695V26.0703Z" fill="#E1E1E1"></path><path fill-rule="evenodd" clip-rule="evenodd" d="M135.193 26.0703H136.944V24.5807H135.193V26.0703Z" fill="#E1E1E1"></path><path fill-rule="evenodd" clip-rule="evenodd" d="M131.691 26.0703H133.442V24.5807H131.691V26.0703Z" fill="#E1E1E1"></path><path fill-rule="evenodd" clip-rule="evenodd" d="M40.8223 66.3025L38.1747 48.803C38.1393 48.57 38.2152 48.3342 38.3789 48.1665C40.9641 45.5243 42.9805 42.7387 44.3718 39.8867L45.694 40.5457C44.2798 43.4443 42.2598 46.2684 39.6873 48.9456L42.2796 66.0771L40.8223 66.3025Z" fill="#E1E1E1"></path><path fill-rule="evenodd" clip-rule="evenodd" d="M19.4501 61.0681L19.0209 56.7028H8.15806C6.37432 56.7028 4.92321 55.2366 4.92321 53.434V43.4502L2.16377 43.0492C2.13302 43.0448 2.103 43.0383 2.07298 43.0302C1.08923 42.7564 0.396618 42.2055 0.123285 41.4792C-0.106364 40.8685 -0.0131378 40.19 0.38588 39.568C2.47908 36.3066 4.92321 31.5783 4.92321 28.9862V28.2394C4.89173 27.7259 4.87684 27.2948 4.87684 26.8849C4.87684 19.3872 8.64128 12.5408 14.9465 8.57132C15.8214 8.02011 16.8293 7.534 18.0281 7.08489C19.9358 6.36992 22.7477 5.97877 24.5629 5.91464C25.0196 5.89861 25.4784 5.8959 25.9277 5.90675L25.893 7.39589C25.472 7.38603 25.0418 7.38824 24.6142 7.40329C22.86 7.46569 20.2179 7.85289 18.5643 8.47218C17.436 8.89539 16.5155 9.33809 15.726 9.83529C9.85566 13.531 6.35114 19.9049 6.35114 26.8849C6.35114 27.2692 6.36529 27.6776 6.3958 28.1696C6.39677 28.1847 6.39726 28.2005 6.39726 28.216V28.9862C6.39726 32.6541 2.74265 38.6333 1.62271 40.3782C1.4819 40.598 1.4409 40.7898 1.50093 40.9496C1.59733 41.2054 1.93998 41.4402 2.42197 41.5818L5.76518 42.0679C6.12783 42.1206 6.39726 42.4348 6.39726 42.8053V53.434C6.39726 54.4148 7.18724 55.2131 8.15806 55.2131H19.6881C20.0671 55.2131 20.3841 55.5034 20.4217 55.8842L20.9171 60.9204L19.4501 61.0681Z" fill="#E1E1E1"></path><path fill-rule="evenodd" clip-rule="evenodd" d="M33.7585 35.1435C33.6643 35.1435 33.5691 35.1253 33.4783 35.0875C33.2018 34.9726 33.0217 34.7006 33.0217 34.3987V26.7301H28.316C26.6071 26.7301 25.2166 25.3248 25.2166 23.5976V3.13242C25.2166 1.40529 26.6071 0 28.316 0H57.1526C58.8617 0 60.2523 1.40529 60.2523 3.13242V9.59359H58.7782V3.13242C58.7782 2.22656 58.049 1.48963 57.1526 1.48963H28.316C27.4198 1.48963 26.6906 2.22656 26.6906 3.13242V23.5976C26.6906 24.5037 27.4198 25.2404 28.316 25.2404H33.7587C34.1658 25.2404 34.4957 25.5741 34.4957 25.9852V32.5882L41.4799 25.4614C41.6183 25.3201 41.8069 25.2404 42.0036 25.2404H51.1303V26.7301H42.3109L34.2822 34.9228C34.1414 35.0668 33.9515 35.1435 33.7585 35.1435Z" fill="#E1E1E1"></path><path fill-rule="evenodd" clip-rule="evenodd" d="M37.3161 12.9694C37.3161 13.8827 36.5835 14.6233 35.6796 14.6233C34.7758 14.6233 34.043 13.8827 34.043 12.9694C34.043 12.0559 34.7758 11.3156 35.6796 11.3156C36.5835 11.3156 37.3161 12.0559 37.3161 12.9694Z" fill="#E1E1E1"></path><path fill-rule="evenodd" clip-rule="evenodd" d="M44.4353 12.9694C44.4353 13.8827 43.7026 14.6233 42.7987 14.6233C41.895 14.6233 41.1621 13.8827 41.1621 12.9694C41.1621 12.0559 41.895 11.3156 42.7987 11.3156C43.7026 11.3156 44.4353 12.0559 44.4353 12.9694Z" fill="#E1E1E1"></path><path fill-rule="evenodd" clip-rule="evenodd" d="M51.5544 12.9694C51.5544 13.8827 50.8218 14.6233 49.9178 14.6233C49.0139 14.6233 48.2812 13.8827 48.2812 12.9694C48.2812 12.0559 49.0139 11.3156 49.9178 11.3156C50.8218 11.3156 51.5544 12.0559 51.5544 12.9694Z" fill="#E1E1E1"></path><path fill-rule="evenodd" clip-rule="evenodd" d="M20.4129 75.3185C20.5311 75.3185 20.6485 75.3469 20.7561 75.4038L24.6233 77.4587L23.8845 73.107C23.8435 72.8653 23.9228 72.6189 24.0966 72.4475L27.225 69.3659L22.9015 68.7311C22.6616 68.6958 22.4539 68.5436 22.3468 68.3234L20.4129 64.3645L18.4794 68.3234C18.372 68.5436 18.1645 68.6958 17.9244 68.7311L13.6008 69.3659L16.7295 72.4475C16.9031 72.6189 16.9826 72.8653 16.9416 73.107L16.2029 77.4587L20.0701 75.4038C20.1774 75.3469 20.2951 75.3185 20.4129 75.3185ZM25.6021 79.5652C25.4847 79.5652 25.3669 79.5368 25.2592 79.4796L20.4129 76.9048L15.5669 79.4796C15.3189 79.6111 15.0178 79.5896 14.7908 79.4229C14.5639 79.2564 14.4501 78.974 14.4975 78.6946L15.4231 73.2412L11.5025 69.3792C11.3017 69.1812 11.2294 68.8855 11.3158 68.6156C11.4027 68.3461 11.6333 68.1493 11.9111 68.1086L17.3292 67.3132L19.7521 62.3518C19.8763 62.0975 20.1325 61.9365 20.4129 61.9365C20.6936 61.9365 20.9499 62.0975 21.0741 62.3518L23.497 67.3132L28.9148 68.1086C29.1926 68.1493 29.4232 68.3461 29.5098 68.6156C29.5965 68.885 29.5245 69.1812 29.3234 69.3792L25.4027 73.2412L26.3284 78.6946C26.376 78.974 26.2623 79.2564 26.0353 79.4229C25.9069 79.5171 25.7549 79.5652 25.6021 79.5652Z" fill="#E1E1E1"></path><path fill-rule="evenodd" clip-rule="evenodd" d="M43.1521 80.1445C43.27 80.1445 43.3876 80.1729 43.495 80.2299L44.6498 80.8435L44.4292 79.5442C44.3882 79.3028 44.4677 79.0562 44.6413 78.8852L45.5752 77.9646L44.2845 77.7752C44.0443 77.7399 43.8369 77.5875 43.7295 77.3675L43.1521 76.1854L42.5749 77.3675C42.4675 77.5875 42.2601 77.7399 42.02 77.7752L40.7289 77.9646L41.6632 78.8848C41.8367 79.0562 41.916 79.3028 41.8752 79.5442L41.6544 80.8435L42.8092 80.2299C42.9166 80.1729 43.0342 80.1445 43.1521 80.1445ZM40.6755 82.9494C40.523 82.9494 40.3707 82.9016 40.2423 82.8074C40.0153 82.6409 39.9019 82.3583 39.9492 82.0788L40.3568 79.6784L38.6306 77.9781C38.4295 77.7799 38.3575 77.4844 38.4439 77.2143C38.5308 76.945 38.7614 76.7482 39.0392 76.7075L41.4245 76.3573L42.4912 74.1729C42.6154 73.9186 42.8717 73.7576 43.1521 73.7576C43.4325 73.7576 43.689 73.9186 43.813 74.1729L44.8799 76.3573L47.265 76.7075C47.5427 76.7482 47.7734 76.945 47.86 77.2143C47.9466 77.4839 47.8747 77.7799 47.6736 77.9776L45.9477 79.6784L46.355 82.0788C46.4026 82.3583 46.2886 82.6409 46.0619 82.8074C45.8347 82.9736 45.5342 82.9955 45.2856 82.8641L43.1521 81.7308L41.0186 82.8641C40.9108 82.9213 40.7929 82.9494 40.6755 82.9494Z" fill="#E1E1E1"></path><path fill-rule="evenodd" clip-rule="evenodd" d="M59.7588 118.348C59.8767 118.348 59.9943 118.376 60.1017 118.433L61.9079 119.393L61.563 117.36C61.5218 117.119 61.6014 116.872 61.7749 116.701L63.236 115.262L61.2167 114.965C60.9768 114.93 60.7692 114.778 60.6618 114.558L59.7588 112.709L58.8556 114.558C58.7482 114.778 58.5408 114.93 58.3006 114.965L56.2816 115.262L57.7427 116.701C57.9162 116.872 57.9958 117.119 57.9546 117.36L57.6097 119.393L59.4159 118.433C59.5231 118.376 59.6407 118.348 59.7588 118.348ZM56.6308 121.499C56.4781 121.499 56.326 121.451 56.1977 121.357C55.9707 121.19 55.857 120.907 55.9043 120.629L56.4363 117.495L54.1833 115.275C53.9824 115.077 53.91 114.781 53.9966 114.512C54.0832 114.242 54.3141 114.045 54.5916 114.005L57.7051 113.548L59.0977 110.696C59.2219 110.442 59.4782 110.281 59.7588 110.281C60.0392 110.281 60.2955 110.442 60.4197 110.696L61.8122 113.548L64.9258 114.005C65.2035 114.045 65.4341 114.242 65.5208 114.512C65.6074 114.781 65.5352 115.077 65.3343 115.275L63.0813 117.495L63.6131 120.629C63.6606 120.907 63.5469 121.19 63.3199 121.357C63.0927 121.523 62.7918 121.545 62.5436 121.414L59.7588 119.934L56.9737 121.414C56.8661 121.471 56.7482 121.499 56.6308 121.499Z" fill="#E1E1E1"></path><path fill-rule="evenodd" clip-rule="evenodd" d="M134.407 43.6246C134.459 43.6246 134.511 43.63 134.562 43.6409C134.759 43.6838 134.93 43.8063 135.036 43.9805C136.561 46.499 139.214 48.0025 142.131 48.0025C144.85 48.0025 147.402 46.6529 148.959 44.3923C149.137 44.1344 149.456 44.0162 149.756 44.0988C150.603 44.3297 151.478 44.4468 152.355 44.4468C157.853 44.4468 162.327 39.9266 162.327 34.3703C162.327 32.1643 161.633 30.0694 160.32 28.3117C160.145 28.0732 160.125 27.7504 160.272 27.4911C160.831 26.5093 161.128 25.3958 161.128 24.2704C161.128 20.7032 158.256 17.8009 154.726 17.8009C153.934 17.8009 153.151 17.9521 152.399 18.249C152.212 18.3225 152.004 18.3161 151.823 18.2322C151.64 18.1476 151.5 17.9923 151.434 17.8014C150.145 14.0719 146.652 11.5661 142.743 11.5661C139.523 11.5661 136.59 13.2235 134.899 15.9998C134.747 16.2479 134.466 16.3845 134.181 16.348C133.682 16.2858 133.213 16.2553 132.749 16.2553C126.407 16.2553 121.248 21.469 121.248 27.8776C121.248 30.9183 122.405 33.795 124.505 35.9774C124.695 36.1749 124.762 36.462 124.679 36.7239C124.483 37.3402 124.384 37.9788 124.384 38.6217C124.384 42.0469 127.141 44.8333 130.531 44.8333C131.772 44.8333 132.969 44.4602 133.991 43.7543C134.115 43.669 134.26 43.6246 134.407 43.6246ZM142.131 49.4921C138.944 49.4921 136.025 47.9679 134.186 45.3793C133.069 45.9986 131.819 46.3229 130.531 46.3229C126.329 46.3229 122.91 42.8682 122.91 38.6217C122.91 37.9726 122.991 37.3274 123.153 36.698C120.971 34.2776 119.774 31.1627 119.774 27.8776C119.774 20.6475 125.595 14.7656 132.749 14.7656C133.121 14.7656 133.506 14.7839 133.898 14.8196C135.892 11.8406 139.164 10.0765 142.743 10.0765C147.034 10.0765 150.891 12.6779 152.562 16.622C153.268 16.4158 153.994 16.3115 154.726 16.3115C159.069 16.3115 162.602 19.8819 162.602 24.2704C162.602 25.4944 162.317 26.7061 161.777 27.8044C163.103 29.7397 163.801 31.999 163.801 34.3703C163.801 40.7477 158.666 45.9365 152.355 45.9365C151.518 45.9365 150.683 45.8435 149.866 45.6595C148.016 48.0688 145.161 49.4921 142.131 49.4921Z" fill="#E1E1E1"></path><path fill-rule="evenodd" clip-rule="evenodd" d="M48.8841 32L48 31.8921C48.0631 31.1733 48.0998 30.4597 48.1089 29.771C48.121 28.8607 48.0854 27.9686 48.0029 27.1186L48.886 27C48.9728 27.8944 49.0104 28.8321 48.9976 29.7875C48.988 30.5067 48.9499 31.251 48.8841 32Z" fill="#BFC5D0"></path><path fill-rule="evenodd" clip-rule="evenodd" d="M110.224 40.6047L118 37.3898L116.484 29.1732L108.198 28.9896C106.993 25.8027 105.286 22.8688 103.181 20.2767L107.084 12.7829L100.68 7.47006L94.2066 12.7008C91.3227 11.0768 88.1614 9.89621 84.8097 9.25928L83.0193 1L74.7225 1.07692L73.1019 9.27541C69.7484 9.91879 66.5851 11.0942 63.7062 12.7218L57.0648 7.55443L50.7582 12.9851L54.7472 20.3119C52.6454 22.909 50.9536 25.8518 49.7544 29.0377L41.3655 29.3794L40 37.6225L47.7341 40.6538C47.7844 44.1268 48.397 47.4586 49.4755 50.5693L43.267 56.2628L47.4816 63.4613L55.3436 60.7749C55.3436 60.7749 64.2937 70.2991 66.0929 76V66.5492L64.929 63.1001L60.0061 59.143L56.3371 52.0866L54.2122 43.0323L56.1861 34.4468L61.2797 25.6416L68.0373 20.6459L75.1393 18.7594L83.5615 19.3336L92.2056 22.7691L99.2842 31.4693L102.445 41.4401L101.511 48.7625L98.8322 55.5058L93.1804 62.2078L90.4797 66.0431V75.9362C92.1093 70.1847 102.652 60.7357 102.652 60.7357L110.658 63.3068L114.741 56.031L108.508 50.5239C109.583 47.4095 110.18 44.0732 110.224 40.6047Z" fill="#EEEEEE"></path><path fill-rule="evenodd" clip-rule="evenodd" d="M85.1988 98.0521L79.0043 102L72.8042 98.0521L65 102V101.979C65 101.979 65 97.2495 65 93.6803C65 90.9521 67.0052 90.9521 67.0052 88.2239C67.0052 85.4974 65 85.4974 65 82.7712C65 80.0475 66.3212 79.8702 66.3212 77.1462L90.489 77C90.489 79.724 92.2392 79.9582 92.2392 82.6822C92.2392 85.4084 90.2553 85.3504 90.2553 88.0769C90.2553 90.8049 92.2349 90.5605 92.2349 93.2889C92.2349 96.0171 92.2392 101.685 92.2392 101.685L93 102L85.1988 98.0521Z" fill="#EEEEEE"></path><path fill-rule="evenodd" clip-rule="evenodd" d="M78.5001 123C78.194 123 77.9075 122.846 77.7338 122.587L64.1647 102.411C64.0572 102.251 64 102.062 64 101.868V93.4884C64 91.8015 64.6368 90.8993 65.1483 90.1734C65.61 89.5189 65.9435 89.0463 65.9435 87.9785C65.9435 86.9113 65.61 86.439 65.1486 85.785C64.6371 85.0602 64 84.158 64 82.4718C64 80.8589 64.4306 80.0248 64.8109 79.2888C65.1429 78.646 65.4051 78.138 65.4051 77H67.2674C67.2674 78.6128 66.8365 79.447 66.4562 80.1832C66.1243 80.8258 65.8621 81.3338 65.8621 82.4718C65.8621 83.5389 66.1953 84.011 66.657 84.665C67.1685 85.3898 67.8056 86.2922 67.8056 87.9785C67.8056 89.6654 67.1688 90.5679 66.657 91.2934C66.1955 91.9474 65.8621 92.4203 65.8621 93.4884V101.571L78.5001 120.363L91.1379 101.571V93.4884C91.1379 92.4203 90.8045 91.9474 90.3428 91.2934C89.831 90.5679 89.1942 89.6654 89.1942 87.9785C89.1942 86.2922 89.8312 85.3898 90.343 84.665C90.8045 84.011 91.1379 83.5389 91.1379 82.4718C91.1379 81.3556 90.8516 80.8536 90.4885 80.2183C90.0648 79.4761 89.5844 78.6346 89.5844 77H91.4464C91.4464 78.1162 91.7328 78.6182 92.0956 79.2534C92.5196 79.9957 93 80.8374 93 82.4718C93 84.158 92.3629 85.0602 91.8512 85.785C91.3897 86.439 91.0565 86.9113 91.0565 87.9785C91.0565 89.0463 91.39 89.5189 91.8514 90.1734C92.3632 90.8993 93 91.8015 93 93.4884V101.868C93 102.062 92.9425 102.251 92.8353 102.411L79.2662 122.587C79.0925 122.846 78.8059 123 78.5001 123Z" fill="#00A5E8"></path><path fill-rule="evenodd" clip-rule="evenodd" d="M65 82H93V81H65V82Z" fill="#00A5E8"></path><path fill-rule="evenodd" clip-rule="evenodd" d="M67.0096 88L67 86.1196L89.9904 86L90 87.8804L67.0096 88Z" fill="#00A5E8"></path><path fill-rule="evenodd" clip-rule="evenodd" d="M78.4414 102C78.2619 102 78.0826 101.957 77.9252 101.871L72.1857 98.7315L64.8688 101.911L64 100.481L71.8057 97.0888C72.1078 96.9576 72.4707 96.9725 72.7565 97.1286L78.4414 100.238L84.121 97.1288C84.4064 96.9725 84.7695 96.9576 85.0721 97.0888L92 100.101L91.1305 101.531L84.6922 98.7315L78.9581 101.871C78.801 101.957 78.6212 102 78.4414 102Z" fill="#00A5E8"></path><path fill-rule="evenodd" clip-rule="evenodd" d="M66.3505 76.133H89.1446C90.8271 70.2056 100.618 60.9858 101.052 60.5792C101.299 60.3478 101.652 60.2679 101.976 60.3705L109.271 62.6938L112.613 56.7891L106.941 51.8199C106.655 51.5694 106.55 51.171 106.675 50.8122C107.738 47.7555 108.299 44.54 108.341 41.2551C108.346 40.881 108.574 40.5454 108.921 40.4035L116.007 37.4988L114.767 30.8303L107.226 30.6646C106.846 30.656 106.509 30.4186 106.373 30.0635C105.217 27.0312 103.576 24.2065 101.498 21.6694C101.261 21.3795 101.22 20.9762 101.394 20.6446L104.951 13.8739L99.7084 9.56226L93.8171 14.2824C93.5199 14.5201 93.1082 14.555 92.7759 14.369C89.9152 12.7715 86.8435 11.656 83.646 11.0536C83.2776 10.9839 82.9861 10.7015 82.9061 10.3353L81.2748 2.87393L74.484 2.93649L73.0087 10.3345C72.9344 10.7074 72.641 10.9982 72.2668 11.0692C69.0471 11.6815 65.9756 12.7985 63.1382 14.389C62.8109 14.5733 62.4058 14.5431 62.1091 14.3139L56.0579 9.64584L50.8958 14.0532L54.5261 20.6644C54.7094 20.9977 54.6717 21.4085 54.4311 21.7032C52.3721 24.2255 50.7396 27.054 49.5793 30.1102C49.4465 30.4599 49.1175 30.6965 48.7431 30.7118L41.0992 31.0207L39.9817 37.7105L47.0207 40.4455C47.3755 40.5832 47.611 40.9223 47.6164 41.3021C47.6645 44.567 48.2337 47.7815 49.3086 50.8557C49.4319 51.2093 49.3324 51.6018 49.0553 51.854L43.3983 56.9973L46.8481 62.8394L54.0037 60.4153C54.3409 60.2998 54.7123 60.3873 54.9642 60.6383C55.3755 61.0478 64.6467 70.3339 66.3505 76.133ZM89.8899 78H65.6144C65.1622 78 64.7745 77.6763 64.6945 77.2317C63.8779 72.6925 55.9445 64.3192 54.0485 62.3716L46.7292 64.8511C46.3095 64.9938 45.8487 64.8222 45.6239 64.4411L41.402 57.2918C41.1772 56.9112 41.2507 56.4251 41.5778 56.1276L47.3448 50.8844C46.3974 47.9986 45.8663 45.0022 45.7625 41.9599L38.5958 39.1754C38.1832 39.0149 37.9398 38.5876 38.0129 38.1517L39.3802 29.965C39.4533 29.5291 39.8222 29.2037 40.2645 29.1858L48.0567 28.8713C49.1922 26.0438 50.7134 23.4065 52.5876 21.0165L48.8914 14.2854C48.6784 13.8979 48.7671 13.4145 49.1036 13.1271L55.4205 7.73358C55.7573 7.44649 56.2493 7.43387 56.5994 7.7044L62.7678 12.4627C65.444 11.0304 68.3074 9.98809 71.2969 9.35949L72.7987 1.82766C72.8851 1.39393 73.2642 1.08037 73.7067 1.07641L82.0174 1C82.4743 1 82.8447 1.30243 82.9393 1.73419L84.6021 9.3397C87.5744 9.95989 90.4384 10.9997 93.1334 12.4367L99.1309 7.63096C99.4761 7.35499 99.9684 7.35771 100.31 7.63863L106.726 12.9152C107.067 13.1964 107.165 13.6781 106.959 14.0693L103.333 20.9705C105.225 23.3712 106.755 26.003 107.89 28.8117L115.567 28.9804C116.01 28.99 116.385 29.3085 116.466 29.743L117.984 37.9034C118.065 38.3381 117.83 38.7699 117.42 38.9378L110.197 41.8985C110.1 44.9565 109.578 47.9541 108.642 50.8268L114.417 55.8862C114.75 56.1776 114.832 56.6622 114.614 57.0473L110.525 64.2732C110.307 64.6575 109.849 64.8367 109.428 64.703L101.934 62.3172C98.7229 65.3931 91.491 73.0545 90.8123 77.2164C90.739 77.6681 90.348 78 89.8899 78Z" fill="#00A5E8"></path><path fill-rule="evenodd" clip-rule="evenodd" d="M71 98H72V94H71V98Z" fill="#00A5E8"></path><path fill-rule="evenodd" clip-rule="evenodd" d="M85 98H86V94H85V98Z" fill="#00A5E8"></path><path fill-rule="evenodd" clip-rule="evenodd" d="M78 102H79V92H78V102Z" fill="#00A5E8"></path><path fill-rule="evenodd" clip-rule="evenodd" d="M72.6133 113L72 111.791C72.1761 111.755 72.3498 111.719 72.5237 111.683C74.144 111.347 75.8191 111 79.1227 111C82.003 111 83.1139 111.242 84.4001 111.523C84.5919 111.565 84.7893 111.608 85 111.651L84.3734 112.858C84.1521 112.812 83.9448 112.767 83.7437 112.723C82.5371 112.46 81.6652 112.27 79.1227 112.27C76.1409 112.27 74.6885 112.571 73.1508 112.89C72.9724 112.927 72.7939 112.964 72.6133 113Z" fill="#00A5E8"></path><path fill-rule="evenodd" clip-rule="evenodd" d="M67.4363 76.1283H89.5612V69.1626C89.5612 66.0244 90.8925 63.0506 93.2139 61.0029C98.2599 56.5531 101.154 50.0792 101.154 43.2419C101.154 36.5218 98.3445 30.1217 93.4464 25.6821C88.6068 21.2957 82.3813 19.2835 75.9162 20.0218C65.5401 21.2035 57.1607 29.8267 55.9922 40.5256C55.1261 48.4565 58.1497 56.2078 64.0806 61.2608C66.213 63.0776 67.4361 65.8229 67.4361 68.793L67.4363 76.1283ZM90.4842 78H66.513C66.0032 78 65.59 77.5811 65.59 77.0642V68.793C65.59 66.3772 64.6068 64.1543 62.893 62.6939C56.4888 57.2376 53.2231 48.8732 54.1574 40.3196C55.42 28.7593 64.4843 19.4404 75.7101 18.1618C82.7051 17.363 89.4401 19.5406 94.6768 24.2866C99.9661 29.0808 103 35.9895 103 43.2419C103 50.6209 99.8747 57.6097 94.4255 62.4152C92.5073 64.1069 91.4072 66.5661 91.4072 69.1626V77.0642C91.4072 77.5811 90.994 78 90.4842 78Z" fill="#00A5E8"></path><path fill-rule="evenodd" clip-rule="evenodd" d="M85.4812 50C85.2946 50 85.1076 49.9584 84.9473 49.8755L78.4965 46.5417L72.0507 49.8753C71.7294 50.0414 71.3033 50.0414 70.9822 49.8753L64 46.2655L65.0681 45.1245L71.5163 48.458L77.9621 45.1245C78.283 44.9584 78.7093 44.9586 79.0302 45.1243L85.4812 48.4584L91.9322 45.1243L93 46.2657L86.0151 49.8755C85.8548 49.9584 85.668 50 85.4812 50Z" fill="#00A5E8"></path><path fill-rule="evenodd" clip-rule="evenodd" d="M77 76H75.5439C75.5439 63.0118 74.755 56.3994 74.0931 53.1393C73.5496 50.4616 73.0044 49.6433 73 49.6408L73.6501 48C74.2096 48.3519 77 51.3535 77 76Z" fill="#00A5E8"></path><path fill-rule="evenodd" clip-rule="evenodd" d="M82.4291 76H81C81 51.3535 83.7392 48.3519 84.2884 48L84.9265 49.6408C84.9761 49.609 85 49.5843 85 49.5843C84.8951 49.6943 82.4291 52.548 82.4291 76Z" fill="#00A5E8"></path><path fill-rule="evenodd" clip-rule="evenodd" d="M93.3443 41C91.1601 35.6022 86.6816 31.9166 81.3644 31.1407C74.8563 30.1894 68.5303 33.9024 65.6252 40.3749L64 39.4925C67.2491 32.2533 74.3214 28.1048 81.6025 29.1638C87.5492 30.0314 92.5577 34.1531 95 40.1892L93.3443 41Z" fill="#00A5E8"></path></g><defs><clipPath id="clip0_65_96"><rect width="164" height="128" fill="white"></rect></clipPath></defs></svg>