<svg xmlns="http://www.w3.org/2000/svg" width="164" height="120" viewBox="0 0 164 120" fill="none"><g clip-path="url(#clip0_65_171)"><path fill-rule="evenodd" clip-rule="evenodd" d="M162 52.5487H160.633V10.017H157V8.54872H161.316C161.694 8.54872 162 8.87761 162 9.28284V52.5487Z" fill="#E1E1E1"></path><path fill-rule="evenodd" clip-rule="evenodd" d="M144 62.5487H152V61.5487H144V62.5487Z" fill="#E1E1E1"></path><path fill-rule="evenodd" clip-rule="evenodd" d="M78.4341 14.5487H77V8.30448C77 7.88731 77.3229 7.54872 77.7171 7.54872H83V9.06023H78.4341V14.5487Z" fill="#E1E1E1"></path><path fill-rule="evenodd" clip-rule="evenodd" d="M155.257 53.5487H143.077V52.0554H154.514V4.04207H125.051C121.85 4.04207 119.242 6.66039 119.242 9.87876V12.9928C119.242 13.405 118.91 13.7395 118.499 13.7395C118.09 13.7395 117.756 13.405 117.756 12.9928V9.87876C117.756 6.66039 115.15 4.04207 111.949 4.04207H82.4862V13.9286H81V3.2954C81 2.883 81.3346 2.54872 81.7431 2.54872H111.949C114.82 2.54872 117.31 4.22627 118.499 6.65693C119.69 4.22627 122.18 2.54872 125.051 2.54872H155.257C155.665 2.54872 156 2.883 156 3.2954V52.802C156 53.2144 155.665 53.5487 155.257 53.5487Z" fill="#E1E1E1"></path><path fill-rule="evenodd" clip-rule="evenodd" d="M89 11.5487H112V10.5487H89V11.5487Z" fill="#E1E1E1"></path><path fill-rule="evenodd" clip-rule="evenodd" d="M89 27.5487H112V26.5487H89V27.5487Z" fill="#E1E1E1"></path><path fill-rule="evenodd" clip-rule="evenodd" d="M143 34.5487H150V33.5487H143V34.5487Z" fill="#E1E1E1"></path><path fill-rule="evenodd" clip-rule="evenodd" d="M143 40.5487H150V39.5487H143V40.5487Z" fill="#E1E1E1"></path><path fill-rule="evenodd" clip-rule="evenodd" d="M144 45.5487H150V44.5487H144V45.5487Z" fill="#E1E1E1"></path><path fill-rule="evenodd" clip-rule="evenodd" d="M127.476 22.087H148.524V12.0105H127.476V22.087ZM149.262 23.5487H126.738C126.33 23.5487 126 23.2215 126 22.8178V11.2796C126 10.8759 126.33 10.5487 126.738 10.5487H149.262C149.67 10.5487 150 10.8759 150 11.2796V22.8178C150 23.2215 149.67 23.5487 149.262 23.5487Z" fill="#E1E1E1"></path><path fill-rule="evenodd" clip-rule="evenodd" d="M43 27.7193L43.4793 28.5454C44.5926 30.461 47.0564 31.1174 48.9859 30.0115C50.913 28.9054 51.572 26.4556 50.4587 24.5398L49.8846 23.5487L43 27.7193Z" fill="white"></path><path fill-rule="evenodd" clip-rule="evenodd" d="M43.4848 27.7733L43.8513 28.4007C44.3385 29.2305 45.1236 29.8248 46.0624 30.0726C47.0012 30.3202 47.9826 30.1932 48.8244 29.7143C50.5625 28.7248 51.1584 26.526 50.1558 24.8121L49.7017 24.0369L43.4848 27.7733ZM47.0106 30.5487C46.663 30.5487 46.313 30.5037 45.9701 30.4126C44.9391 30.1402 44.076 29.4881 43.5415 28.5768L43 27.6516L49.8271 23.5487L50.4656 24.6361C51.5675 26.5181 50.9101 28.933 49.0018 30.019C48.3869 30.3697 47.7035 30.5487 47.0106 30.5487Z" fill="#E1E1E1"></path><path fill-rule="evenodd" clip-rule="evenodd" d="M7 33.5487C7 35.2055 5.65632 36.5487 3.99867 36.5487C2.34368 36.5487 1 35.2055 1 33.5487C1 31.8919 2.34368 30.5487 3.99867 30.5487C5.65632 30.5487 7 31.8919 7 33.5487Z" fill="white"></path><path fill-rule="evenodd" clip-rule="evenodd" d="M3.99875 30.925C2.55297 30.925 1.3764 32.1022 1.3764 33.5487C1.3764 34.9952 2.55297 36.1722 3.99875 36.1722C5.44703 36.1722 6.6236 34.9952 6.6236 33.5487C6.6236 32.1022 5.44703 30.925 3.99875 30.925ZM3.99875 36.5487C2.34607 36.5487 1 35.2029 1 33.5487C1 31.8945 2.34607 30.5487 3.99875 30.5487C5.65393 30.5487 7 31.8945 7 33.5487C7 35.2029 5.65393 36.5487 3.99875 36.5487Z" fill="#E1E1E1"></path><path fill-rule="evenodd" clip-rule="evenodd" d="M34.4879 17.5487L29.0624 5.68694C28.9091 5.35079 29.0473 4.95855 29.379 4.77495L36.9105 0.644996C37.2447 0.462122 37.6694 0.546636 37.9006 0.840286L46 11.2338L44.7812 12.0921L37.0839 2.21543L30.726 5.70246L35.8801 16.9743L34.4879 17.5487Z" fill="#E1E1E1"></path><path fill-rule="evenodd" clip-rule="evenodd" d="M46.6396 12.0062C44.2016 12.0062 41.771 12.6455 39.5524 13.8995C36.158 15.8167 33.789 18.8665 32.8868 22.4872C32.1004 25.6338 32.4873 28.9917 33.9394 31.8153L58.2206 18.1038C56.4458 15.4615 53.6651 13.4552 50.4876 12.5471C49.223 12.1854 47.9288 12.0062 46.6396 12.0062ZM33.6509 33.5487C33.3921 33.5487 33.1431 33.4183 33.0051 33.1846C31.0749 29.916 30.5055 25.8909 31.4397 22.1419C32.4406 18.1315 35.056 14.756 38.8079 12.638C42.5574 10.52 46.854 9.99093 50.9067 11.1488C54.6931 12.2312 57.9717 14.7266 59.8994 17.9955C60.1064 18.3442 59.9832 18.7893 59.6282 18.9904L34.0207 33.4513C33.9048 33.5174 33.7767 33.5487 33.6509 33.5487Z" fill="#E1E1E1"></path><path fill-rule="evenodd" clip-rule="evenodd" d="M34.1895 13.5487L33 12.6432C34.2204 11.3343 35.706 10.2198 37.4078 9.331C39.0917 8.45358 40.8785 7.85414 42.7194 7.54872L43 8.93044C41.3342 9.20701 39.7147 9.75086 38.1854 10.548C36.638 11.3552 35.294 12.3647 34.1895 13.5487Z" fill="#E1E1E1"></path><path fill-rule="evenodd" clip-rule="evenodd" d="M47.4304 30.5487C47.0339 30.5487 46.6327 30.495 46.2386 30.387C45.0588 30.0632 44.07 29.2889 43.4586 28.2058L43 27.3924L44.2491 26.6551L44.7077 27.4682C45.128 28.2099 45.8039 28.7401 46.6112 28.9622C47.4208 29.1829 48.2663 29.0699 48.99 28.6417C50.4875 27.7578 51.0033 25.7932 50.1388 24.2623L49.5871 23.2863L50.8362 22.5487L51.3879 23.5245C52.6489 25.76 51.899 28.6285 49.7136 29.9196C49.0067 30.3357 48.2233 30.5487 47.4304 30.5487Z" fill="#E1E1E1"></path><path fill-rule="evenodd" clip-rule="evenodd" d="M15.7234 56.5487L3 36.3508L4.27659 35.5487L17 55.7467L15.7234 56.5487Z" fill="#E1E1E1"></path><path fill-rule="evenodd" clip-rule="evenodd" d="M5.95629 31.5487L5 30.4012L31.0437 7.54872L32 8.69604L5.95629 31.5487Z" fill="#E1E1E1"></path><path fill-rule="evenodd" clip-rule="evenodd" d="M3.5012 31.0013C2.37101 31.0013 1.45242 31.9198 1.45242 33.0487C1.45242 34.1774 2.37101 35.0961 3.5012 35.0961C4.62899 35.0961 5.54758 34.1774 5.54758 33.0487C5.54758 31.9198 4.62899 31.0013 3.5012 31.0013ZM3.5012 36.5487C1.57025 36.5487 0 34.9785 0 33.0487C0 31.1187 1.57025 29.5487 3.5012 29.5487C5.42975 29.5487 7 31.1187 7 33.0487C7 34.9785 5.42975 36.5487 3.5012 36.5487Z" fill="#E1E1E1"></path><path fill-rule="evenodd" clip-rule="evenodd" d="M147.445 95.5487C147.308 95.5487 147.173 95.5093 147.055 95.433L144 93.4538L144.781 92.2076L147.568 94.0122L153.641 92.3735L157.866 79.4958L155.778 78.724C155.527 78.6312 155.346 78.4068 155.308 78.1391C155.269 77.8709 155.375 77.603 155.59 77.4398L159.644 74.3301L162.313 52.1649C159.001 55.3718 150.736 64.335 146.628 77.3837L148.616 82.2792C148.726 82.5487 148.669 82.858 148.471 83.0694C148.274 83.2811 147.975 83.355 147.703 83.2583L144.132 81.9856L144.614 80.5913L146.65 81.3173L145.18 77.6987C145.115 77.5389 145.108 77.3607 145.159 77.1956C150.437 60.1422 162.689 49.8178 162.812 49.7157C163.043 49.5244 163.363 49.495 163.624 49.6404C163.884 49.7859 164.031 50.0779 163.995 50.3774L161.051 74.8207C161.027 75.0194 160.923 75.2 160.767 75.3204L157.534 77.7997L159.03 78.3527C159.401 78.4898 159.596 78.9011 159.471 79.2812L154.898 93.2192C154.821 93.4553 154.631 93.6356 154.395 93.6995L147.633 95.524C147.57 95.5404 147.507 95.5487 147.445 95.5487Z" fill="#E1E1E1"></path><path fill-rule="evenodd" clip-rule="evenodd" d="M140.392 112.549L139 112.037L157.608 60.5487L159 61.0615L140.392 112.549Z" fill="#E1E1E1"></path><path fill-rule="evenodd" clip-rule="evenodd" d="M138.433 105.194H148.567V102.904H138.433V105.194ZM149.283 106.549H137.717C137.32 106.549 137 106.245 137 105.871V102.226C137 101.852 137.32 101.549 137.717 101.549H149.283C149.677 101.549 150 101.852 150 102.226V105.871C150 106.245 149.677 106.549 149.283 106.549Z" fill="#E1E1E1"></path><path fill-rule="evenodd" clip-rule="evenodd" d="M132.459 118.043H154.541V106.054H132.459V118.043ZM155.271 119.549H131.729C131.326 119.549 131 119.212 131 118.796V105.301C131 104.885 131.326 104.549 131.729 104.549H155.271C155.674 104.549 156 104.885 156 105.301V118.796C156 119.212 155.674 119.549 155.271 119.549Z" fill="#E1E1E1"></path><path fill-rule="evenodd" clip-rule="evenodd" d="M132 113.549V112.175C137.524 112.175 141.256 111.475 144.869 110.797C148.288 110.155 151.522 109.549 156 109.549V110.922C151.669 110.922 148.506 111.515 145.16 112.143C141.479 112.834 137.671 113.549 132 113.549Z" fill="#E1E1E1"></path><path fill-rule="evenodd" clip-rule="evenodd" d="M23.7511 81.6572C23.7511 84.1792 19.8646 84.1792 19.8646 81.6572C19.8646 79.1111 23.7511 79.1111 23.7511 81.6572ZM16 71.6889C16.0243 68.1339 19.0625 66.5487 22.4872 66.5487C25.9144 66.5487 29.0717 68.014 28.9988 71.6168C28.9988 75.0995 25.7685 75.46 24.3588 76.3968C23.7025 76.8291 23.4352 77.5019 23.4352 78.6305V78.7507H20.2292V78.607C20.2535 75.316 21.6122 74.5714 22.9004 73.8988C24.1886 73.2263 25.6713 73.034 25.6713 71.5928C25.6713 69.7436 23.9456 69.3111 22.4386 69.3111C20.8855 69.3111 19.2813 70.1758 19.257 71.6889H16Z" fill="#E1E1E1"></path><path fill-rule="evenodd" clip-rule="evenodd" d="M22.3044 94.5487C11.1092 94.5487 2 85.3528 2 74.0488C2 62.7449 11.1092 53.5487 22.3044 53.5487C30.4714 53.5487 37.8094 58.4534 41 66.0444L39.6323 66.6303C36.6754 59.595 29.8737 55.0489 22.3044 55.0489C11.9283 55.0489 3.48581 63.5723 3.48581 74.0488C3.48581 84.5254 11.9283 93.0485 22.3044 93.0485C28.6068 93.0485 34.9682 89.4622 38.5105 83.9114L39.7577 84.7239C35.9497 90.6924 29.0988 94.5487 22.3044 94.5487Z" fill="#E1E1E1"></path><path fill-rule="evenodd" clip-rule="evenodd" d="M22.8344 90.5487C14.1032 90.5487 7 83.3712 7 74.5487C7 65.7262 14.1032 58.5487 22.8344 58.5487C28.8147 58.5487 34.8414 62.5684 37.4898 68.3234L36.1546 68.9519C33.7381 63.704 28.2606 60.0386 22.8344 60.0386C14.916 60.0386 8.47433 66.5476 8.47433 74.5487C8.47433 82.5498 14.916 89.0589 22.8344 89.0589C29.1247 89.0589 34.7804 84.812 36.5867 78.7317L38 79.1601C36.0057 85.8658 29.7691 90.5487 22.8344 90.5487Z" fill="#E1E1E1"></path><path fill-rule="evenodd" clip-rule="evenodd" d="M20.0836 98.9987L18.4624 113.545C18.3339 114.703 18.7029 115.864 19.4718 116.733C20.2408 117.601 21.3454 118.099 22.5 118.099C23.6546 118.099 24.7592 117.601 25.5282 116.733C26.2971 115.864 26.6661 114.703 26.5376 113.545L24.9164 98.9987H20.0836ZM22.5 119.549C20.9359 119.549 19.4409 118.874 18.4005 117.699C17.3578 116.523 16.8602 114.95 17.034 113.383L18.7267 98.1926C18.7671 97.8258 19.0766 97.5487 19.4409 97.5487H25.5591C25.9234 97.5487 26.2329 97.8258 26.2733 98.1926L27.966 113.383C28.1398 114.95 27.6422 116.523 26.5995 117.699C25.5591 118.874 24.0641 119.549 22.5 119.549Z" fill="#E1E1E1"></path><path fill-rule="evenodd" clip-rule="evenodd" d="M19 102.549H27V101.549H19V102.549Z" fill="#E1E1E1"></path><path fill-rule="evenodd" clip-rule="evenodd" d="M20 97.5487H21V93.5487H20V97.5487Z" fill="#E1E1E1"></path><path fill-rule="evenodd" clip-rule="evenodd" d="M24 97.5487H25V93.5487H24V97.5487Z" fill="#E1E1E1"></path><path fill-rule="evenodd" clip-rule="evenodd" d="M56.8914 26.9045L55 25.7973L55.7454 24.5487L57.6393 25.6559L56.8914 26.9045ZM60.6792 29.1193L58.7853 28.0121L59.5331 26.7635L61.4246 27.8707L60.6792 29.1193ZM64.4669 31.3339L62.573 30.2267L63.3184 28.9784L65.2123 30.0855L64.4669 31.3339ZM68.2522 33.5487L66.3607 32.4416L67.1061 31.193L69 32.3004L68.2522 33.5487Z" fill="#E1E1E1"></path><path fill-rule="evenodd" clip-rule="evenodd" d="M51.1006 34.1618L50 32.2641L51.2981 31.5487L52.3987 33.4464L51.1006 34.1618ZM53.3019 37.9575L52.2013 36.0595L53.4968 35.3443L54.5975 37.2418L53.3019 37.9575ZM55.5032 41.7529L54.4025 39.8552L55.6981 39.1397L56.7987 41.0374L55.5032 41.7529ZM57.7044 45.5487L56.6038 43.6505L57.8994 42.9351L59 44.8333L57.7044 45.5487Z" fill="#E1E1E1"></path><path fill-rule="evenodd" clip-rule="evenodd" d="M42.8576 34.8438L41.1396 34.7621L41.2821 32.5487L43 32.6304L42.8576 34.8438ZM42.5727 39.2699L40.8547 39.1884L40.9972 36.9753L42.7151 37.0567L42.5727 39.2699ZM42.2878 43.6962L40.5698 43.6147L40.7122 41.4013L42.4302 41.483L42.2878 43.6962ZM42.0028 48.1224L40.2849 48.041L40.4273 45.8281L42.1453 45.9095L42.0028 48.1224ZM41.7179 52.5487L40 52.4673L40.1424 50.2544L41.8604 50.3358L41.7179 52.5487Z" fill="#E1E1E1"></path><path fill-rule="evenodd" clip-rule="evenodd" d="M143 57.5487H151V56.5487H143V57.5487Z" fill="#BFC5D0"></path><path fill-rule="evenodd" clip-rule="evenodd" d="M95.4068 49.2863H133.036V27.302H95.4068V49.2863ZM86.0663 13.5487L86 84.5487C86.1915 84.5445 86.3781 84.5379 86.5746 84.5379C97.1944 84.5379 144 84.5379 144 84.5379V13.5487H86.0663Z" fill="#EEEEEE"></path><path fill-rule="evenodd" clip-rule="evenodd" d="M46.836 66.5487H45V49.4501C45 48.9523 45.4129 48.5487 45.918 48.5487H75V50.3515H46.836V66.5487Z" fill="#E1E1E1"></path><path fill-rule="evenodd" clip-rule="evenodd" d="M40.7619 79.5487H36.9326C36.417 79.5487 36 79.1412 36 78.6385V67.4589C36 66.9562 36.417 66.5487 36.9326 66.5487H76V68.3692H37.8628V77.7283H40.7619V79.5487Z" fill="#E1E1E1"></path><path fill-rule="evenodd" clip-rule="evenodd" d="M40.8505 95.5487H39V78.4886C39 77.9695 39.4142 77.5487 39.924 77.5487H76V79.4285H40.8505V95.5487Z" fill="#E1E1E1"></path><path fill-rule="evenodd" clip-rule="evenodd" d="M75 90.5487H64.9279C64.4149 90.5487 64 90.1536 64 89.6665V84.4307C64 83.9433 64.4149 83.5487 64.9279 83.5487H75V85.3127H65.8534V88.7845H75V90.5487Z" fill="#E1E1E1"></path><path fill-rule="evenodd" clip-rule="evenodd" d="M47.8919 94.6629H59.1081V79.4345H47.8919V94.6629ZM60.0528 96.5487H46.9472C46.4235 96.5487 46 96.1266 46 95.6058V78.4916C46 77.9708 46.4235 77.5487 46.9472 77.5487H60.0528C60.5765 77.5487 61 77.9708 61 78.4916V95.6058C61 96.1266 60.5765 96.5487 60.0528 96.5487Z" fill="#E1E1E1"></path><path fill-rule="evenodd" clip-rule="evenodd" d="M57 78.5487H59V67.5487H57V78.5487Z" fill="#E1E1E1"></path><path fill-rule="evenodd" clip-rule="evenodd" d="M75 62.5487H53.9084C53.4072 62.5487 53 62.1313 53 61.6165V54.4812C53 53.9662 53.4072 53.5487 53.9084 53.5487H75V55.4136H54.8193V60.6841H75V62.5487Z" fill="#E1E1E1"></path><path fill-rule="evenodd" clip-rule="evenodd" d="M112 110.549H114V98.5487H112V110.549Z" fill="#E1E1E1"></path><path fill-rule="evenodd" clip-rule="evenodd" d="M106 110.549H108V98.5487H106V110.549Z" fill="#E1E1E1"></path><path fill-rule="evenodd" clip-rule="evenodd" d="M55 110.549H57V95.5487H55V110.549Z" fill="#E1E1E1"></path><path fill-rule="evenodd" clip-rule="evenodd" d="M49 110.549H51V95.5487H49V110.549Z" fill="#E1E1E1"></path><path fill-rule="evenodd" clip-rule="evenodd" d="M132.075 112.549H36.9271C36.4145 112.549 36 112.132 36 111.618V95.4794C36 94.9654 36.4145 94.5487 36.9271 94.5487H76.3668V96.4101H37.8518V110.687H131.148V98.7026H133V111.618C133 112.132 132.585 112.549 132.075 112.549Z" fill="#E1E1E1"></path><path fill-rule="evenodd" clip-rule="evenodd" d="M100 104.549L94.864 100.963L90 104.549V88.5487H100V104.549Z" fill="#EEEEEE"></path><path fill-rule="evenodd" clip-rule="evenodd" d="M74.2857 92.5487L74 19.7421C74 15.774 77.2335 12.5487 81.2083 12.5487H143.072C143.584 12.5487 144 12.9638 144 13.476V84.5755H142.141V14.4032H81.2083C78.258 14.4032 75.8593 16.7966 75.8593 19.7384L76.145 92.5414L74.2857 92.5487Z" fill="#00A5E8"></path><path fill-rule="evenodd" clip-rule="evenodd" d="M85 84.5487H87V13.5487H85V84.5487Z" fill="#00A5E8"></path><path fill-rule="evenodd" clip-rule="evenodd" d="M89.4642 98.5487H81.763C77.4815 98.5487 74 95.1843 74 91.049C74 86.9134 77.4815 83.5487 81.763 83.5487H143.069C143.583 83.5487 144 83.952 144 84.4493V88.5105C144 89.0078 143.583 89.4111 143.069 89.4111H98.9235V87.6101H142.136V85.3497H81.763C78.5111 85.3497 75.8642 87.9063 75.8642 91.049C75.8642 94.1916 78.5111 96.748 81.763 96.748H89.4642V98.5487Z" fill="#00A5E8"></path><path fill-rule="evenodd" clip-rule="evenodd" d="M89.9786 89.5487L85 89.4804L85.0214 87.5487L90 87.6173L89.9786 89.5487Z" fill="#00A5E8"></path><path fill-rule="evenodd" clip-rule="evenodd" d="M143.064 99.5487H99V97.7055H142.125V95.3919H99V93.5487H143.064C143.58 93.5487 144 93.9611 144 94.4701V98.6271C144 99.1361 143.58 99.5487 143.064 99.5487Z" fill="#00A5E8"></path><path fill-rule="evenodd" clip-rule="evenodd" d="M85 95.5487H90V93.5487H85V95.5487Z" fill="#00A5E8"></path><path fill-rule="evenodd" clip-rule="evenodd" d="M101 64.5487H128V62.5487H101V64.5487Z" fill="#00A5E8"></path><path fill-rule="evenodd" clip-rule="evenodd" d="M142 94.5487H144V88.5487H142V94.5487Z" fill="#00A5E8"></path><path fill-rule="evenodd" clip-rule="evenodd" d="M107 72.5487H121V70.5487H107V72.5487Z" fill="#00A5E8"></path><path fill-rule="evenodd" clip-rule="evenodd" d="M95.8782 48.6796H132.122V28.4179H95.8782V48.6796ZM133.062 50.5487H94.9379C94.4204 50.5487 94 50.1303 94 49.6142V27.4833C94 26.9669 94.4204 26.5487 94.9379 26.5487H133.062C133.58 26.5487 134 26.9669 134 27.4833V49.6142C134 50.1303 133.58 50.5487 133.062 50.5487Z" fill="#00A5E8"></path><path fill-rule="evenodd" clip-rule="evenodd" d="M94.3741 100.063C94.5635 100.063 94.753 100.124 94.9137 100.247L98.1894 102.756V89.4196H90.8106V102.693L93.8153 100.262C93.9784 100.13 94.1775 100.063 94.3741 100.063ZM89.9065 105.548C89.7722 105.548 89.6355 105.517 89.5108 105.454C89.199 105.298 89 104.971 89 104.613V88.484C89 87.9674 89.4053 87.5487 89.9065 87.5487H99.0935C99.5947 87.5487 100 87.9674 100 88.484V104.613C100 104.967 99.8058 105.29 99.5012 105.449C99.1966 105.607 98.8297 105.575 98.554 105.365L94.3885 102.174L90.4652 105.35C90.3022 105.481 90.1055 105.548 89.9065 105.548Z" fill="#00A5E8"></path><path fill-rule="evenodd" clip-rule="evenodd" d="M126 57.5487H129V55.5487H126V57.5487Z" fill="#00A5E8"></path><path fill-rule="evenodd" clip-rule="evenodd" d="M119 57.5487H122V55.5487H119V57.5487Z" fill="#00A5E8"></path><path fill-rule="evenodd" clip-rule="evenodd" d="M113 57.5487H116V55.5487H113V57.5487Z" fill="#00A5E8"></path><path fill-rule="evenodd" clip-rule="evenodd" d="M107 57.5487H110V55.5487H107V57.5487Z" fill="#00A5E8"></path><path fill-rule="evenodd" clip-rule="evenodd" d="M101 57.5487H104V55.5487H101V57.5487Z" fill="#00A5E8"></path><path fill-rule="evenodd" clip-rule="evenodd" d="M94 57.5487H97V55.5487H94V57.5487Z" fill="#00A5E8"></path><path fill-rule="evenodd" clip-rule="evenodd" d="M132 57.5487H135V55.5487H132V57.5487Z" fill="#00A5E8"></path></g><defs><clipPath id="clip0_65_171"><rect width="164" height="120" fill="white"></rect></clipPath></defs></svg>