<svg xmlns="http://www.w3.org/2000/svg" width="244" height="222" viewBox="0 0 244 222" fill="none"><g clip-path="url(#clip0_65_40)"><path fill-rule="evenodd" clip-rule="evenodd" d="M58.9195 32.5044L57.5157 30.6691C58.4542 29.9799 59.4198 29.2927 60.3893 28.6263L61.7349 30.5054C60.7848 31.158 59.8386 31.8305 58.9195 32.5044ZM53.4943 36.7613L51.9741 35.0157C52.8777 34.2612 53.7967 33.5154 54.7081 32.7996L56.1739 34.5902C55.2781 35.2915 54.3784 36.022 53.4943 36.7613ZM48.3559 41.348L46.7233 39.7019C47.5648 38.9037 48.4335 38.1013 49.3099 37.3183L50.8883 39.0146C50.0312 39.7816 49.1781 40.5662 48.3559 41.348ZM43.5279 46.2447L41.7905 44.703C42.5816 43.8512 43.396 42.9972 44.2181 42.1641L45.9012 43.7585C45.0984 44.5742 44.2996 45.4104 43.5279 46.2447ZM39.0255 51.4335L37.1951 50.0039C37.9281 49.1035 38.6843 48.2001 39.4521 47.3179L41.236 48.8038C40.4875 49.6673 39.743 50.5517 39.0255 51.4335ZM34.8722 56.8925L32.9527 55.5802C33.6235 54.6354 34.3216 53.6856 35.0274 52.759L36.9043 54.1305C36.214 55.0373 35.5315 55.967 34.8722 56.8925ZM31.0835 62.5995L29.0824 61.4104C29.6913 60.4268 30.3234 59.4356 30.971 58.4649L32.9333 59.7163C32.3011 60.6665 31.6807 61.6364 31.0835 62.5995ZM27.6786 68.5314L25.6 67.4703C26.1429 66.4514 26.713 65.423 27.2908 64.4136L29.3345 65.5381C28.7644 66.5266 28.2099 67.533 27.6786 68.5314ZM24.6654 74.6647L22.5248 73.7369C23.0018 72.6812 23.502 71.6189 24.0101 70.5803L26.1235 71.5741C25.6233 72.5915 25.1347 73.6313 24.6654 74.6647ZM22.0672 80.9739L19.8684 80.184C20.2717 79.1028 20.7021 78.0109 21.1404 76.94L23.3159 77.7993C22.8816 78.8475 22.4627 79.9158 22.0672 80.9739ZM19.8878 87.4343L17.6385 86.7846C17.9721 85.6794 18.3288 84.5633 18.6972 83.4668L20.9232 84.1872C20.5625 85.2604 20.2135 86.3527 19.8878 87.4343Z" fill="#E1E1E1"></path><path fill-rule="evenodd" clip-rule="evenodd" d="M125.298 10.4288C124.306 10.4009 123.294 10.3865 122.29 10.3865L121.903 10.3869L121.892 8.04391L122.29 8.04353C123.313 8.04353 124.347 8.05827 125.363 8.08697L125.298 10.4288ZM115.113 10.6313L114.958 8.29373C116.098 8.21498 117.265 8.15447 118.425 8.11258L118.504 10.4544C117.368 10.4952 116.227 10.5545 115.113 10.6313ZM132.081 10.8431C130.967 10.7388 129.826 10.6507 128.693 10.5809L128.83 8.24253C129.989 8.31352 131.152 8.40312 132.289 8.51019L132.081 10.8431ZM108.353 11.316L108.054 8.99237C109.195 8.83953 110.354 8.70298 111.502 8.58699L111.73 10.9184C110.6 11.0324 109.467 11.1662 108.353 11.316ZM101.651 12.4421L101.207 10.1441C102.336 9.91638 103.484 9.7038 104.625 9.51256L104.992 11.8245C103.878 12.0119 102.753 12.2198 101.651 12.4421ZM95.0347 14.0089L94.4474 11.7438C95.569 11.4393 96.7019 11.1519 97.8159 10.8885L98.3313 13.171C97.24 13.429 96.1336 13.711 95.0347 14.0089ZM88.5288 16.009L87.8013 13.7882C88.8964 13.4119 90.0066 13.0496 91.1092 12.7117L91.7647 14.955C90.6886 15.2871 89.6012 15.6408 88.5288 16.009ZM82.1669 18.435L81.2992 16.2658C82.3716 15.8177 83.459 15.3825 84.5313 14.9736L85.3308 17.1688C84.2775 17.5699 83.2127 17.9955 82.1669 18.435ZM75.968 21.2753L74.9639 19.1682C76.0059 18.6503 77.063 18.1448 78.1088 17.6654L79.0447 19.8036C78.0217 20.2733 76.9872 20.7679 75.968 21.2753Z" fill="#E1E1E1"></path><path fill-rule="evenodd" clip-rule="evenodd" d="M154.664 15.7118C153.585 15.357 152.484 15.0156 151.398 14.6978L152.038 12.4541C153.147 12.7792 154.268 13.1279 155.373 13.4913L154.664 15.7118ZM161.09 18.0599C160.034 17.6354 158.96 17.2226 157.896 16.8345L158.678 14.6375C159.764 15.0342 160.861 15.4563 161.94 15.8904L161.09 18.0599ZM167.352 20.8243C166.331 20.3322 165.287 19.8502 164.242 19.3913L165.161 17.25C166.224 17.7193 167.295 18.2118 168.34 18.714L167.352 20.8243ZM173.428 23.9916C172.445 23.4361 171.431 22.8867 170.417 22.3579L171.469 20.2816C172.506 20.8216 173.542 21.3829 174.549 21.9497L173.428 23.9916ZM179.294 27.5473C178.341 26.9272 177.365 26.3134 176.389 25.7223L177.571 23.7179C178.566 24.3221 179.564 24.9499 180.536 25.5831L179.294 27.5473ZM184.92 31.4773C184.012 30.7996 183.075 30.1231 182.137 29.4663L183.441 27.5442C184.401 28.2145 185.358 28.9054 186.284 29.5973L184.92 31.4773ZM190.286 35.7637C189.421 35.0264 188.529 34.2912 187.637 33.5776L189.059 31.7432C189.974 32.4716 190.885 33.2231 191.769 33.9757L190.286 35.7637ZM195.374 40.3879C194.559 39.5958 193.713 38.8045 192.867 38.034L194.403 36.2956C195.268 37.0823 196.129 37.891 196.964 38.6993L195.374 40.3879Z" fill="#E1E1E1"></path><path fill-rule="evenodd" clip-rule="evenodd" d="M211.258 59.4632C210.907 58.9243 210.552 58.39 210.193 57.8583L212.054 56.5601C212.42 57.1028 212.783 57.6496 213.142 58.1995L211.258 59.4632ZM214.771 65.2557C214.218 64.2747 213.642 63.2907 213.059 62.3309L214.98 61.1291C215.578 62.1093 216.165 63.1146 216.73 64.1164L214.771 65.2557ZM217.911 71.2641C217.421 70.247 216.909 69.2274 216.389 68.2342L218.381 67.1599C218.912 68.175 219.435 69.2164 219.936 70.2554L217.911 71.2641ZM220.661 77.466C220.239 76.4209 219.794 75.3709 219.335 74.3421L221.394 73.401C221.861 74.4514 222.317 75.525 222.751 76.5921L220.661 77.466ZM223.016 83.835C222.661 82.7671 222.28 81.6893 221.891 80.6317L224.003 79.8268C224.402 80.9076 224.791 82.0089 225.154 83.0999L223.016 83.835ZM224.959 90.3451C224.672 89.2537 224.361 88.1531 224.04 87.0743L226.2 86.4094C226.529 87.5118 226.847 88.6366 227.138 89.7519L224.959 90.3451ZM226.484 96.9701C226.267 95.8689 226.028 94.7501 225.774 93.6455L227.972 93.124C228.233 94.2526 228.476 95.3953 228.697 96.5212L226.484 96.9701ZM227.587 103.682C227.437 102.563 227.273 101.431 227.09 100.317L229.313 99.9396C229.5 101.078 229.672 102.234 229.825 103.377L227.587 103.682ZM228.263 110.453C228.185 109.328 228.091 108.187 227.979 107.063L230.225 106.831C230.338 107.98 230.435 109.145 230.513 110.295L228.263 110.453ZM228.514 117.255C228.506 116.124 228.484 114.979 228.443 113.852L230.696 113.766C230.741 114.917 230.764 116.087 230.771 117.242L228.514 117.255ZM230.595 124.189L228.342 124.058C228.405 122.929 228.454 121.786 228.48 120.66L230.737 120.717C230.708 121.868 230.663 123.036 230.595 124.189Z" fill="#E1E1E1"></path><path fill-rule="evenodd" clip-rule="evenodd" d="M66.1446 20.5371C63.3047 20.5371 60.9971 22.8469 60.9971 25.6857C60.9971 28.5249 63.3047 30.8347 66.1446 30.8347C68.9844 30.8347 71.2921 28.5249 71.2921 25.6857C71.2921 22.8469 68.9844 20.5371 66.1446 20.5371ZM66.1446 33.0369C62.0907 33.0369 58.7952 29.739 58.7952 25.6857C58.7952 21.6324 62.0907 18.3349 66.1446 18.3349C70.1984 18.3349 73.494 21.6324 73.494 25.6857C73.494 29.739 70.1984 33.0369 66.1446 33.0369Z" fill="#E1E1E1"></path><path fill-rule="evenodd" clip-rule="evenodd" d="M141.108 3.03629C136.728 3.03629 133.163 6.6016 133.163 10.9833C133.163 15.3659 136.728 18.9316 141.108 18.9316C145.493 18.9316 149.054 15.3659 149.054 10.9833C149.054 6.6016 145.493 3.03629 141.108 3.03629ZM141.108 21.2753C135.436 21.2753 130.819 16.6588 130.819 10.9833C130.819 5.30904 135.436 0.692535 141.108 0.692535C146.785 0.692535 151.398 5.30904 151.398 10.9833C151.398 16.6588 146.785 21.2753 141.108 21.2753Z" fill="#E1E1E1"></path><path fill-rule="evenodd" clip-rule="evenodd" d="M205.785 36.7838C200.555 36.7838 196.3 41.0387 196.3 46.2687C196.3 51.4987 200.555 55.7536 205.785 55.7536C211.012 55.7536 215.266 51.4987 215.266 46.2687C215.266 41.0387 211.012 36.7838 205.785 36.7838ZM205.785 58.0303C199.3 58.0303 194.024 52.7543 194.024 46.2687C194.024 39.7831 199.3 34.5071 205.785 34.5071C212.267 34.5071 217.542 39.7831 217.542 46.2687C217.542 52.7543 212.267 58.0303 205.785 58.0303Z" fill="#E1E1E1"></path><path fill-rule="evenodd" clip-rule="evenodd" d="M13.229 209.461H10.8906C10.8906 207.272 10.4531 206.249 9.94594 205.064C9.41555 203.829 8.81934 202.429 8.81934 199.776C8.81934 197.123 9.41555 195.723 9.94594 194.487C10.4531 193.303 10.8906 192.28 10.8906 190.091C10.8906 187.904 10.4531 186.882 9.94594 185.698C9.41555 184.464 8.81934 183.064 8.81934 180.412C8.81934 177.76 9.41555 176.361 9.94594 175.125C10.4531 173.942 10.8906 172.919 10.8906 170.731C10.8906 168.544 10.4531 167.522 9.94594 166.338C9.41555 165.104 8.81934 163.705 8.81934 161.053C8.81934 158.402 9.41555 157.003 9.94594 155.769C10.4531 154.586 10.8906 153.564 10.8906 151.377C10.8906 149.191 10.4531 148.169 9.94594 146.986C9.41555 145.752 8.81934 144.353 8.81934 141.702C8.81934 139.05 9.41555 137.651 9.94594 136.416C10.4531 135.233 10.8906 134.211 10.8906 132.024C10.8906 129.837 10.4531 128.815 9.94594 127.632C9.41555 126.398 8.81934 124.999 8.81934 122.347C8.81934 119.695 9.41555 118.295 9.94594 117.061C10.4531 115.877 10.8906 114.855 10.8906 112.668C10.8906 110.481 10.4531 109.46 9.94594 108.276C9.41555 107.042 8.81934 105.643 8.81934 102.991C8.81934 100.34 9.41555 98.941 9.94594 97.7066C10.4531 96.5236 10.8906 95.5017 10.8906 93.315H13.229C13.229 95.9667 12.6289 97.3649 12.1024 98.5993C11.5952 99.7823 11.1577 100.805 11.1577 102.991C11.1577 105.178 11.5952 106.2 12.1024 107.383C12.6289 108.618 13.229 110.017 13.229 112.668C13.229 115.32 12.6289 116.719 12.1024 117.954C11.5952 119.137 11.1577 120.159 11.1577 122.347C11.1577 124.534 11.5952 125.556 12.1024 126.739C12.6289 127.974 13.229 129.372 13.229 132.024C13.229 134.676 12.6289 136.075 12.1024 137.309C11.5952 138.493 11.1577 139.515 11.1577 141.702C11.1577 143.888 11.5952 144.91 12.1024 146.093C12.6289 147.327 13.229 148.726 13.229 151.377C13.229 154.029 12.6289 155.428 12.1024 156.662C11.5952 157.845 11.1577 158.866 11.1577 161.053C11.1577 163.24 11.5952 164.262 12.1024 165.445C12.6289 166.68 13.229 168.079 13.229 170.731C13.229 173.384 12.6289 174.783 12.1024 176.018C11.5952 177.202 11.1577 178.224 11.1577 180.412C11.1577 182.599 11.5952 183.622 12.1024 184.805C12.6289 186.04 13.229 187.438 13.229 190.091C13.229 192.744 12.6289 194.144 12.1024 195.379C11.5952 196.564 11.1577 197.587 11.1577 199.776C11.1577 201.965 11.5952 202.988 12.1024 204.172C12.6289 205.407 13.229 206.808 13.229 209.461Z" fill="#E1E1E1"></path><path fill-rule="evenodd" clip-rule="evenodd" d="M88.5188 209.461H1.14767C0.513031 209.461 0 208.941 0 208.301V91.5344C0 90.8939 0.513031 90.3747 1.14767 90.3747H63.08V92.6941H2.29534V207.141H87.3673V175.6H89.6626V208.301C89.6626 208.941 89.1496 209.461 88.5188 209.461Z" fill="#E1E1E1"></path><path fill-rule="evenodd" clip-rule="evenodd" d="M23.5181 134.481H49.9759V131.54H23.5181V134.481Z" fill="#E1E1E1"></path><path fill-rule="evenodd" clip-rule="evenodd" d="M23.5181 152.123H36.747V149.183H23.5181V152.123Z" fill="#E1E1E1"></path><path fill-rule="evenodd" clip-rule="evenodd" d="M45.5663 182.997H58.7952V180.057H45.5663V182.997Z" fill="#E1E1E1"></path><path fill-rule="evenodd" clip-rule="evenodd" d="M45.5663 193.289H58.7952V190.348H45.5663V193.289Z" fill="#E1E1E1"></path><path fill-rule="evenodd" clip-rule="evenodd" d="M38.5677 199.169C38.3898 199.169 38.212 199.124 38.0452 199.032L33.1353 196.277L28.0846 199.037C27.74 199.228 27.325 199.21 26.9915 198.994C26.658 198.778 26.4579 198.391 26.4579 197.975V182.997H28.6961V196.023L32.6277 193.871C32.9538 193.692 33.3391 193.695 33.6615 193.876L37.4486 196V184.078H39.6868V197.975C39.6868 198.394 39.483 198.781 39.1458 198.997C38.9679 199.111 38.7678 199.169 38.5677 199.169Z" fill="#E1E1E1"></path><path fill-rule="evenodd" clip-rule="evenodd" d="M23.5181 112.428H27.9277V109.487H23.5181V112.428Z" fill="#E1E1E1"></path><path fill-rule="evenodd" clip-rule="evenodd" d="M30.8674 112.428H35.2771V109.487H30.8674V112.428Z" fill="#E1E1E1"></path><path fill-rule="evenodd" clip-rule="evenodd" d="M38.2169 112.428H42.6266V109.487H38.2169V112.428Z" fill="#E1E1E1"></path><path fill-rule="evenodd" clip-rule="evenodd" d="M235.181 200.64H238.12V135.951H235.181V200.64Z" fill="#E1E1E1"></path><path fill-rule="evenodd" clip-rule="evenodd" d="M242.85 137.421H161.687V135.178H241.701V129.802L186.459 122.034L186.261 122.062L167.111 124.771L166.78 122.55L186.291 119.79C186.398 119.775 186.512 119.775 186.619 119.79L243.014 127.721C243.578 127.8 244 128.273 244 128.831V136.299C244 136.918 243.486 137.421 242.85 137.421Z" fill="#E1E1E1"></path><path fill-rule="evenodd" clip-rule="evenodd" d="M185.205 93.3151H188.145V72.7323H185.205V93.3151Z" fill="#E1E1E1"></path><path fill-rule="evenodd" clip-rule="evenodd" d="M201.71 87.4343H186.675V85.005H199.747L197.747 81.2984C197.541 80.9139 197.545 80.4377 197.758 80.058L199.699 76.6317H186.675V74.2025H201.71C202.122 74.2025 202.497 74.4394 202.699 74.8218C202.898 75.2043 202.89 75.6737 202.68 76.0485L200.043 80.7039L202.692 85.6107C202.894 85.986 202.894 86.4497 202.692 86.8257C202.489 87.2026 202.119 87.4343 201.71 87.4343Z" fill="#E1E1E1"></path><path fill-rule="evenodd" clip-rule="evenodd" d="M170.175 202.11H167.566V183.429C167.566 180.692 168.266 178.073 169.648 175.646L171.976 176.693C170.78 178.792 170.175 181.058 170.175 183.429V202.11Z" fill="#E1E1E1"></path><path fill-rule="evenodd" clip-rule="evenodd" d="M202.843 202.11H200.451V183.745C200.451 179.729 198.784 175.976 195.758 173.177C192.804 170.444 188.931 168.993 184.848 169.106C184.507 169.111 184.206 169.123 183.905 169.144L183.735 166.874C184.08 166.85 184.428 166.837 184.781 166.833C189.521 166.697 194.004 168.381 197.426 171.546C200.919 174.777 202.843 179.109 202.843 183.745V202.11Z" fill="#E1E1E1"></path><path fill-rule="evenodd" clip-rule="evenodd" d="M131.646 208.557H241.703V203.013H131.646V208.557ZM242.852 210.931H130.498C129.863 210.931 129.349 210.399 129.349 209.744V201.826C129.349 201.171 129.863 200.64 130.498 200.64H242.852C243.487 200.64 244 201.171 244 201.826V209.744C244 210.399 243.487 210.931 242.852 210.931Z" fill="#E1E1E1"></path><path fill-rule="evenodd" clip-rule="evenodd" d="M153.135 202.11H143.781C143.116 202.11 142.578 201.603 142.578 200.978V175.646H144.983V199.846H151.933V175.646H154.337V200.978C154.337 201.603 153.8 202.11 153.135 202.11Z" fill="#E1E1E1"></path><path fill-rule="evenodd" clip-rule="evenodd" d="M219.947 199.784H226.897V156.321C226.897 154.478 225.348 152.979 223.442 152.979H223.398C221.495 152.979 219.947 154.478 219.947 156.321V199.784ZM228.099 202.11H218.744C218.08 202.11 217.542 201.589 217.542 200.947V156.321C217.542 153.195 220.169 150.653 223.398 150.653H223.442C226.674 150.653 229.301 153.195 229.301 156.321V200.947C229.301 201.589 228.764 202.11 228.099 202.11Z" fill="#E1E1E1"></path><path fill-rule="evenodd" clip-rule="evenodd" d="M173.446 122.719H171.037V108.802H167.566V106.547H172.241C172.907 106.547 173.446 107.052 173.446 107.675V122.719Z" fill="#E1E1E1"></path><path fill-rule="evenodd" clip-rule="evenodd" d="M191.084 121.249H188.711V108.77H183.169V120.013H180.795V107.658C180.795 107.044 181.326 106.547 181.982 106.547H189.897C190.554 106.547 191.084 107.044 191.084 107.658V121.249Z" fill="#E1E1E1"></path><path fill-rule="evenodd" clip-rule="evenodd" d="M210.193 124.189H207.82V108.83H202.277V122.92H199.904V107.689C199.904 107.058 200.434 106.547 201.09 106.547H209.002C209.658 106.547 210.193 107.058 210.193 107.689V124.189Z" fill="#E1E1E1"></path><path fill-rule="evenodd" clip-rule="evenodd" d="M189.717 159.474H186.675V157.14H188.35V152.987H186.675V150.653H189.717C190.469 150.653 191.084 151.176 191.084 151.82V158.307C191.084 158.952 190.469 159.474 189.717 159.474Z" fill="#E1E1E1"></path><path fill-rule="evenodd" clip-rule="evenodd" d="M199.297 157.14H203.45V152.987H199.297V157.14ZM204.617 159.474H198.13C197.485 159.474 196.964 158.952 196.964 158.307V151.82C196.964 151.176 197.485 150.653 198.13 150.653H204.617C205.258 150.653 205.783 151.176 205.783 151.82V158.307C205.783 158.952 205.258 159.474 204.617 159.474Z" fill="#E1E1E1"></path><path fill-rule="evenodd" clip-rule="evenodd" d="M217.542 125.659H215.26V98.5655H167.566V96.2554H216.401C217.032 96.2554 217.542 96.7725 217.542 97.4101V125.659Z" fill="#E1E1E1"></path><path fill-rule="evenodd" clip-rule="evenodd" d="M217.542 99.1958H221.952V96.2554H217.542V99.1958Z" fill="#E1E1E1"></path><path fill-rule="evenodd" clip-rule="evenodd" d="M148.458 99.1958H154.337V96.2554H148.458V99.1958Z" fill="#84C8F4"></path><path fill-rule="evenodd" clip-rule="evenodd" d="M192.554 97.7256H190.126V97.5825C190.126 96.3511 188.931 95.3499 187.464 95.3499H184.42C182.952 95.3499 181.754 96.3511 181.754 97.5825V97.7256H179.325V97.5825C179.325 95.2289 181.609 93.315 184.42 93.315H187.464C190.27 93.315 192.554 95.2289 192.554 97.5825V97.7256Z" fill="#E1E1E1"></path><path fill-rule="evenodd" clip-rule="evenodd" d="M132.289 174.176V206.52L122 198.102L122.559 174.592L132.289 174.176Z" fill="#EEEEEE"></path><path fill-rule="evenodd" clip-rule="evenodd" d="M122 174.176V216.812L113.661 211.421L105.831 216.812L106.445 174.176H122Z" fill="#EEEEEE"></path><path fill-rule="evenodd" clip-rule="evenodd" d="M129.41 143.302L118.891 148.225L113.318 145.353L114.891 151.527L111.711 174.176H126.882L130.819 164.223L129.41 143.302Z" fill="#EEEEEE"></path><path fill-rule="evenodd" clip-rule="evenodd" d="M61.735 138.891H99.9519V135.951H61.735V138.891Z" fill="#00A5E8"></path><path fill-rule="evenodd" clip-rule="evenodd" d="M135.255 140.361L135.229 137.534L152.841 137.421L152.867 140.248L135.255 140.361Z" fill="#00A5E8"></path><path fill-rule="evenodd" clip-rule="evenodd" d="M64.8403 175.646C59.6607 175.646 54.3508 175.286 49.2784 170.141C41.2714 162.023 43.2559 147.878 50.3779 140.655C56.5537 134.393 66.6027 134.393 72.7784 140.655C77.8316 145.779 77.8316 154.116 72.7784 159.24C70.7671 161.282 68.0891 162.406 65.2426 162.406C62.3961 162.406 59.722 161.282 57.7068 159.24C54.2703 155.756 54.2703 150.086 57.7068 146.601C59.0937 145.193 61.0514 144.435 63.0895 144.535C66.1314 144.676 68.522 146.253 69.4798 148.755C70.361 151.062 69.817 153.684 68.093 155.434C67.0969 156.442 65.6985 156.974 64.2465 156.911C62.0896 156.809 60.3886 155.672 59.7028 153.871C59.063 152.2 59.4576 150.301 60.7104 149.034L62.7524 151.108C62.3156 151.555 62.1739 152.223 62.3999 152.813C62.6681 153.518 63.373 153.934 64.3806 153.982C65.0127 154.014 65.6334 153.78 66.0471 153.361C66.9628 152.432 67.2501 151.04 66.7827 149.815C66.2425 148.409 64.848 147.552 62.9593 147.464C61.7371 147.414 60.5648 147.849 59.7526 148.674C57.4425 151.016 57.4425 154.826 59.7526 157.166C61.2199 158.653 63.17 159.473 65.2426 159.473C67.3191 159.473 69.2691 158.653 70.7326 157.166C72.6367 155.239 73.6825 152.675 73.6825 149.948C73.6825 147.22 72.6367 144.657 70.7364 142.729C65.687 137.61 57.4731 137.61 52.4237 142.729C46.2671 148.973 44.4895 161.136 51.3242 168.068C55.9598 172.767 60.8751 172.742 66.0893 172.709C66.4954 172.706 66.9015 172.704 67.3076 172.704H168.575C177.774 172.704 185.252 165.118 185.252 155.794C185.252 146.469 177.774 138.884 168.575 138.884L161.534 138.938L161.511 136.005L168.564 135.951C179.368 135.951 188.145 144.852 188.145 155.794C188.145 166.736 179.368 175.636 168.575 175.636H67.3076C66.9091 175.636 66.5069 175.639 66.1046 175.642C65.6832 175.643 65.2618 175.646 64.8403 175.646Z" fill="#00A5E8"></path><path fill-rule="evenodd" clip-rule="evenodd" d="M112.736 174.176L110.241 173.096C113.573 164.269 114.311 154.692 112.376 145.4L114.999 144.772C117.055 154.637 116.275 164.805 112.736 174.176Z" fill="#00A5E8"></path><path fill-rule="evenodd" clip-rule="evenodd" d="M128.914 175.646L126.41 174.548C129.998 164.916 130.57 154.096 128.019 144.083L130.62 143.302C133.331 153.933 132.723 165.42 128.914 175.646Z" fill="#00A5E8"></path><path fill-rule="evenodd" clip-rule="evenodd" d="M63.2048 175.646V172.775C67.1515 172.775 70.0328 171.559 72.0081 169.059C77.1072 162.611 74.2335 149.964 74.2032 149.837L76.9935 149.183C77.1262 149.757 80.1971 163.321 74.2525 170.843C71.7313 174.03 68.0159 175.646 63.2048 175.646Z" fill="#00A5E8"></path><path fill-rule="evenodd" clip-rule="evenodd" d="M123.47 221.222L113.181 213.349L102.892 221.222V174.176H105.867V215.294L113.181 209.702L120.49 215.294V174.176H123.47V221.222Z" fill="#00A5E8"></path><path fill-rule="evenodd" clip-rule="evenodd" d="M135.229 213.871L122 200.3L124.026 198.222L132.365 206.778V174.176H135.229V213.871Z" fill="#00A5E8"></path><path fill-rule="evenodd" clip-rule="evenodd" d="M161.472 127.13L160.217 124.584L166.359 121.078V91.8448H169.036V122.812L161.472 127.13Z" fill="#00A5E8"></path><path fill-rule="evenodd" clip-rule="evenodd" d="M119.008 149.183L67.6145 122.739V91.8448H70.4743V120.982L118.985 145.942L150.057 129.386L151.398 131.925L119.008 149.183Z" fill="#00A5E8"></path><path fill-rule="evenodd" clip-rule="evenodd" d="M41.1566 79.5097L116.982 40.3879L191.084 79.5097L116.982 119.779L41.1566 79.5097Z" fill="#EEEEEE"></path><path fill-rule="evenodd" clip-rule="evenodd" d="M44.4563 79.5251L117.743 118.001L189.366 79.5251L117.743 42.1451L44.4563 79.5251ZM117.758 121.249L38.2169 79.4883L117.758 38.9177L195.494 79.4883L117.758 121.249Z" fill="#00A5E8"></path><path fill-rule="evenodd" clip-rule="evenodd" d="M158.747 124.189H155.811V100.304C155.811 99.7706 155.511 99.2843 155.029 99.0347L120.53 81.1569L121.903 78.6131L156.402 96.4912C157.849 97.2405 158.747 98.7009 158.747 100.304V124.189Z" fill="#00A5E8"></path><path fill-rule="evenodd" clip-rule="evenodd" d="M156.542 125.507C154.433 125.507 152.716 127.225 152.716 129.335C152.716 131.445 154.433 133.163 156.542 133.163C158.655 133.163 160.368 131.445 160.368 129.335C160.368 127.225 158.655 125.507 156.542 125.507ZM156.542 135.951C152.893 135.951 149.928 132.983 149.928 129.335C149.928 125.687 152.893 122.719 156.542 122.719C160.191 122.719 163.157 125.687 163.157 129.335C163.157 132.983 160.191 135.951 156.542 135.951Z" fill="#00A5E8"></path><path fill-rule="evenodd" clip-rule="evenodd" d="M164.627 159.474H149.928L152.403 134.481L155.281 134.78L153.131 156.508H161.427L159.273 134.78L162.155 134.481L164.627 159.474Z" fill="#00A5E8"></path></g><defs><clipPath id="clip0_65_40"><rect width="244" height="222" fill="white"></rect></clipPath></defs></svg>