<svg xmlns="http://www.w3.org/2000/svg" width="166" height="151" viewBox="0 0 166 151" fill="none"><g clip-path="url(#clip0_65_40)"><path fill-rule="evenodd" clip-rule="evenodd" d="M40.0846 22.1089L39.1295 20.8605C39.768 20.3917 40.4249 19.9243 41.0845 19.471L42 20.7491C41.3536 21.1931 40.7099 21.6505 40.0846 22.1089ZM36.3936 25.0043L35.3594 23.8169C35.9741 23.3037 36.5994 22.7965 37.2194 22.3097L38.2167 23.5275C37.6072 24.0045 36.9952 24.5015 36.3936 25.0043ZM32.8979 28.1241L31.7872 27.0044C32.3597 26.4615 32.9507 25.9157 33.5469 25.3832L34.6207 26.5369C34.0376 27.0587 33.4572 27.5923 32.8979 28.1241ZM29.6132 31.4547L28.4313 30.4061C28.9695 29.8267 29.5235 29.2458 30.0828 28.6791L31.2279 29.7637C30.6817 30.3185 30.1382 30.8872 29.6132 31.4547ZM26.5502 34.984L25.3049 34.0117C25.8035 33.3992 26.318 32.7847 26.8404 32.1847L28.054 33.1953C27.5448 33.7827 27.0383 34.3843 26.5502 34.984ZM23.7246 38.6971L22.4186 37.8046C22.875 37.1619 23.3499 36.5159 23.8301 35.8856L25.107 36.8185C24.6374 37.4353 24.1731 38.0676 23.7246 38.6971ZM21.147 42.5789L19.7856 41.7701C20.1998 41.1011 20.6298 40.4269 21.0704 39.7667L22.4054 40.6179C21.9754 41.2641 21.5533 41.9238 21.147 42.5789ZM18.8305 46.6137L17.4164 45.892C17.7858 45.1989 18.1736 44.4994 18.5667 43.8128L19.9571 44.5777C19.5693 45.2501 19.192 45.9346 18.8305 46.6137ZM16.7806 50.7854L15.3242 50.1544C15.6488 49.4363 15.9891 48.7138 16.3347 48.0073L17.7726 48.6833C17.4322 49.3753 17.0998 50.0826 16.7806 50.7854ZM15.0129 55.0768L13.517 54.5396C13.7914 53.8042 14.0842 53.0615 14.3824 52.333L15.8625 52.9176C15.567 53.6305 15.282 54.3571 15.0129 55.0768ZM13.5302 59.471L12 59.0292C12.2269 58.2775 12.4696 57.5182 12.7203 56.7725L14.2346 57.2624C13.9893 57.9924 13.7518 58.7354 13.5302 59.471Z" fill="#E1E1E1"></path><path fill-rule="evenodd" clip-rule="evenodd" d="M85.2439 7.09347C84.5685 7.07448 83.8802 7.06471 83.1971 7.06471L82.9342 7.06498L82.9264 5.47131L83.1971 5.47105C83.8931 5.47105 84.5969 5.48107 85.2877 5.5006L85.2439 7.09347ZM78.3147 7.2312L78.209 5.64123C78.9849 5.58767 79.7789 5.54651 80.5677 5.51801L80.6218 7.11089C79.8485 7.13859 79.0726 7.17896 78.3147 7.2312ZM89.8582 7.37527C89.1003 7.30429 88.3244 7.2444 87.5536 7.1969L87.6464 5.6064C88.4353 5.65469 89.2267 5.71564 90 5.78846L89.8582 7.37527ZM73.7158 7.6969L73.5122 6.11643C74.2881 6.01247 75.0769 5.9196 75.858 5.8407L76.0127 7.42646C75.2445 7.50403 74.4737 7.59506 73.7158 7.6969ZM69.1557 8.46287L68.8541 6.89981C69.6223 6.74493 70.4033 6.60033 71.1793 6.47025L71.4293 8.04281C70.6714 8.17025 69.9058 8.31168 69.1557 8.46287ZM64.6548 9.52857L64.2552 7.98793C65.0182 7.78081 65.789 7.58529 66.5469 7.40614L66.8975 8.95865C66.1551 9.13411 65.4023 9.32593 64.6548 9.52857ZM60.2286 10.889L59.7337 9.37843C60.4787 9.1225 61.234 8.87606 61.9841 8.64624L62.4301 10.1721C61.698 10.398 60.9582 10.6386 60.2286 10.889ZM55.9005 12.5391L55.3101 11.0637C56.0397 10.7589 56.7795 10.4629 57.509 10.1848L58.0529 11.6779C57.3363 11.9507 56.6119 12.2402 55.9005 12.5391ZM51.6831 14.471L51 13.0378C51.7089 12.6856 52.4281 12.3418 53.1396 12.0156L53.7763 13.47C53.0803 13.7895 52.3766 14.1259 51.6831 14.471Z" fill="#E1E1E1"></path><path fill-rule="evenodd" clip-rule="evenodd" d="M105.222 10.6869C104.488 10.4455 103.739 10.2133 103 9.99717L103.436 8.47105C104.19 8.69218 104.953 8.92936 105.705 9.17652L105.222 10.6869ZM109.594 12.284C108.876 11.9953 108.145 11.7144 107.421 11.4505L107.953 9.95615C108.692 10.2259 109.439 10.5131 110.172 10.8083L109.594 12.284ZM113.855 14.1643C113.16 13.8296 112.449 13.5017 111.739 13.1896L112.364 11.7331C113.087 12.0523 113.816 12.3873 114.526 12.7289L113.855 14.1643ZM117.988 16.3186C117.319 15.9407 116.629 15.5671 115.939 15.2074L116.655 13.7951C117.36 14.1624 118.066 14.5442 118.75 14.9297L117.988 16.3186ZM121.979 18.7371C121.33 18.3154 120.666 17.8978 120.003 17.4958L120.807 16.1324C121.483 16.5434 122.163 16.9704 122.824 17.4011L121.979 18.7371ZM125.806 21.4102C125.189 20.9493 124.551 20.4891 123.913 20.0424L124.8 18.735C125.453 19.191 126.104 19.6608 126.734 20.1315L125.806 21.4102ZM129.457 24.3257C128.868 23.8243 128.262 23.3242 127.655 22.8388L128.622 21.5911C129.244 22.0865 129.864 22.5977 130.466 23.1096L129.457 24.3257ZM132.919 27.471C132.364 26.9323 131.788 26.394 131.212 25.87L132.257 24.6875C132.846 25.2226 133.432 25.7727 134 26.3225L132.919 27.471Z" fill="#E1E1E1"></path><path fill-rule="evenodd" clip-rule="evenodd" d="M143.725 40.4457C143.486 40.0791 143.244 39.7157 143 39.3541L144.266 38.471C144.515 38.8401 144.762 39.2121 145.006 39.5861L143.725 40.4457ZM146.115 44.3856C145.738 43.7184 145.347 43.049 144.95 42.3963L146.257 41.5788C146.664 42.2455 147.063 42.9293 147.447 43.6107L146.115 44.3856ZM148.251 48.4724C147.918 47.7806 147.569 47.0871 147.216 46.4116L148.571 45.6808C148.932 46.3713 149.288 47.0796 149.629 47.7863L148.251 48.4724ZM150.122 52.6908C149.835 51.98 149.532 51.2658 149.219 50.566L150.62 49.9259C150.938 50.6403 151.248 51.3706 151.543 52.0964L150.122 52.6908ZM151.724 57.0229C151.482 56.2965 151.223 55.5635 150.959 54.8441L152.395 54.2966C152.667 55.0317 152.932 55.7808 153.178 56.5229L151.724 57.0229ZM153.046 61.4509C152.85 60.7086 152.639 59.96 152.421 59.2262L153.89 58.7739C154.114 59.5238 154.33 60.2888 154.529 61.0475L153.046 61.4509ZM154.084 65.9572C153.936 65.2081 153.773 64.4472 153.6 63.6958L155.096 63.3411C155.274 64.1088 155.439 64.886 155.589 65.6518L154.084 65.9572ZM154.834 70.5223C154.732 69.7611 154.62 68.9911 154.495 68.2338L156.008 67.9769C156.135 68.751 156.252 69.5375 156.357 70.3152L154.834 70.5223ZM155.294 75.1279C155.24 74.3626 155.177 73.5864 155.101 72.8218L156.629 72.6644C156.705 73.4457 156.771 74.2384 156.825 75.0205L155.294 75.1279ZM155.464 79.7547C155.459 78.9855 155.444 78.2067 155.416 77.4399L156.949 77.3813C156.98 78.1644 156.995 78.9599 157 79.7456L155.464 79.7547ZM156.88 84.471L155.347 84.382C155.39 83.6141 155.424 82.8364 155.441 82.0703L156.977 82.1095C156.957 82.8924 156.926 83.6866 156.88 84.471Z" fill="#E1E1E1"></path><path fill-rule="evenodd" clip-rule="evenodd" d="M45 13.9689C43.068 13.9689 41.498 15.54 41.498 17.4709C41.498 19.4021 43.068 20.9731 45 20.9731C46.932 20.9731 48.502 19.4021 48.502 17.4709C48.502 15.54 46.932 13.9689 45 13.9689ZM45 22.471C42.2421 22.471 40 20.2279 40 17.4709C40 14.7139 42.2421 12.471 45 12.471C47.7579 12.471 50 14.7139 50 17.4709C50 20.2279 47.7579 22.471 45 22.471Z" fill="#E1E1E1"></path><path fill-rule="evenodd" clip-rule="evenodd" d="M96 2.06522C93.02 2.06522 90.5943 4.49028 90.5943 7.47065C90.5943 10.4516 93.02 12.8769 96 12.8769C98.9827 12.8769 101.406 10.4516 101.406 7.47065C101.406 4.49028 98.9827 2.06522 96 2.06522ZM96 14.471C92.141 14.471 89 11.331 89 7.47065C89 3.6111 92.141 0.471046 96 0.471046C99.8616 0.471046 103 3.6111 103 7.47065C103 11.331 99.8616 14.471 96 14.471Z" fill="#E1E1E1"></path><path fill-rule="evenodd" clip-rule="evenodd" d="M140.001 25.0196C136.443 25.0196 133.548 27.9137 133.548 31.471C133.548 35.0284 136.443 37.9225 140.001 37.9225C143.557 37.9225 146.452 35.0284 146.452 31.471C146.452 27.9137 143.557 25.0196 140.001 25.0196ZM140.001 39.471C135.589 39.471 132 35.8824 132 31.471C132 27.0597 135.589 23.471 140.001 23.471C144.411 23.471 148 27.0597 148 31.471C148 35.8824 144.411 39.471 140.001 39.471Z" fill="#E1E1E1"></path><path fill-rule="evenodd" clip-rule="evenodd" d="M9 142.471H7.40913C7.40913 140.982 7.1115 140.286 6.76646 139.481C6.40562 138.641 6 137.688 6 135.884C6 134.079 6.40562 133.127 6.76646 132.286C7.1115 131.481 7.40913 130.785 7.40913 129.296C7.40913 127.808 7.1115 127.113 6.76646 126.308C6.40562 125.469 6 124.517 6 122.713C6 120.909 6.40562 119.957 6.76646 119.117C7.1115 118.312 7.40913 117.616 7.40913 116.128C7.40913 114.64 7.1115 113.945 6.76646 113.14C6.40562 112.3 6 111.349 6 109.545C6 107.742 6.40562 106.79 6.76646 105.951C7.1115 105.147 7.40913 104.451 7.40913 102.964C7.40913 101.477 7.1115 100.781 6.76646 99.9769C6.40562 99.1375 6 98.186 6 96.3826C6 94.579 6.40562 93.6272 6.76646 92.7876C7.1115 91.9827 7.40913 91.2873 7.40913 89.7998C7.40913 88.3128 7.1115 87.6177 6.76646 86.8128C6.40562 85.9731 6 85.0216 6 83.218C6 81.4141 6.40562 80.4621 6.76646 79.6224C7.1115 78.8175 7.40913 78.1222 7.40913 76.6346C7.40913 75.1471 7.1115 74.4523 6.76646 73.6474C6.40562 72.8077 6 71.8559 6 70.0526C6 68.249 6.40562 67.2977 6.76646 66.4581C7.1115 65.6534 7.40913 64.9583 7.40913 63.471H9C9 65.2746 8.59175 66.2257 8.23354 67.0653C7.8885 67.87 7.59087 68.5653 7.59087 70.0526C7.59087 71.5401 7.8885 72.2349 8.23354 73.0399C8.59175 73.8795 9 74.8313 9 76.6346C9 78.4382 8.59175 79.3901 8.23354 80.2297C7.8885 81.0349 7.59087 81.7299 7.59087 83.218C7.59087 84.7055 7.8885 85.4004 8.23354 86.2053C8.59175 87.0452 9 87.9962 9 89.7998C9 91.6037 8.59175 92.5555 8.23354 93.3951C7.8885 94.2 7.59087 94.8951 7.59087 96.3826C7.59087 97.8699 7.8885 98.565 8.23354 99.3694C8.59175 100.209 9 101.16 9 102.964C9 104.768 8.59175 105.719 8.23354 106.558C7.8885 107.363 7.59087 108.058 7.59087 109.545C7.59087 111.032 7.8885 111.728 8.23354 112.532C8.59175 113.372 9 114.324 9 116.128C9 117.932 8.59175 118.884 8.23354 119.724C7.8885 120.529 7.59087 121.225 7.59087 122.713C7.59087 124.2 7.8885 124.896 8.23354 125.701C8.59175 126.541 9 127.492 9 129.296C9 131.101 8.59175 132.053 8.23354 132.893C7.8885 133.699 7.59087 134.394 7.59087 135.884C7.59087 137.373 7.8885 138.068 8.23354 138.874C8.59175 139.714 9 140.666 9 142.471Z" fill="#E1E1E1"></path><path fill-rule="evenodd" clip-rule="evenodd" d="M60.2218 142.471H0.780792C0.349029 142.471 0 142.118 0 141.682V62.2599C0 61.8242 0.349029 61.471 0.780792 61.471H42.9151V63.0487H1.56158V140.893H59.4384V119.439H61V141.682C61 142.118 60.651 142.471 60.2218 142.471Z" fill="#E1E1E1"></path><path fill-rule="evenodd" clip-rule="evenodd" d="M16 91.471H34V89.471H16V91.471Z" fill="#E1E1E1"></path><path fill-rule="evenodd" clip-rule="evenodd" d="M16 103.471H25V101.471H16V103.471Z" fill="#E1E1E1"></path><path fill-rule="evenodd" clip-rule="evenodd" d="M31 124.471H40V122.471H31V124.471Z" fill="#E1E1E1"></path><path fill-rule="evenodd" clip-rule="evenodd" d="M31 131.471H40V129.471H31V131.471Z" fill="#E1E1E1"></path><path fill-rule="evenodd" clip-rule="evenodd" d="M26.2387 135.471C26.1176 135.471 25.9966 135.44 25.8832 135.378L22.5429 133.504L19.1067 135.381C18.8723 135.511 18.5899 135.499 18.363 135.352C18.1361 135.205 18 134.942 18 134.659V124.471H19.5227V133.331L22.1975 131.867C22.4193 131.746 22.6815 131.747 22.9008 131.871L25.4773 133.315V125.206H27V134.659C27 134.943 26.8613 135.207 26.6319 135.354C26.5109 135.432 26.3748 135.471 26.2387 135.471Z" fill="#E1E1E1"></path><path fill-rule="evenodd" clip-rule="evenodd" d="M16 76.471H19V74.471H16V76.471Z" fill="#E1E1E1"></path><path fill-rule="evenodd" clip-rule="evenodd" d="M21 76.471H24V74.471H21V76.471Z" fill="#E1E1E1"></path><path fill-rule="evenodd" clip-rule="evenodd" d="M26 76.471H29V74.471H26V76.471Z" fill="#E1E1E1"></path><path fill-rule="evenodd" clip-rule="evenodd" d="M160 136.471H162V92.471H160V136.471Z" fill="#E1E1E1"></path><path fill-rule="evenodd" clip-rule="evenodd" d="M165.218 93.471H110V91.9451H164.436V88.2888L126.853 83.0049L126.718 83.0244L113.69 84.8666L113.465 83.3563L126.739 81.479C126.812 81.4684 126.889 81.4684 126.962 81.479L165.329 86.873C165.713 86.9268 166 87.2489 166 87.6281V92.7081C166 93.1292 165.65 93.471 165.218 93.471Z" fill="#E1E1E1"></path><path fill-rule="evenodd" clip-rule="evenodd" d="M126 63.471H128V49.471H126V63.471Z" fill="#E1E1E1"></path><path fill-rule="evenodd" clip-rule="evenodd" d="M137.229 59.471H127V57.8187H135.894L134.533 55.2975C134.393 55.036 134.395 54.7121 134.541 54.4539L135.861 52.1234H127V50.471H137.229C137.509 50.471 137.764 50.6322 137.902 50.8923C138.037 51.1525 138.032 51.4717 137.889 51.7267L136.095 54.8932L137.897 58.2307C138.034 58.4859 138.034 58.8013 137.897 59.0571C137.759 59.3135 137.507 59.471 137.229 59.471Z" fill="#E1E1E1"></path><path fill-rule="evenodd" clip-rule="evenodd" d="M115.775 137.471H114V124.765C114 122.903 114.476 121.122 115.416 119.471L117 120.183C116.186 121.611 115.775 123.152 115.775 124.765V137.471Z" fill="#E1E1E1"></path><path fill-rule="evenodd" clip-rule="evenodd" d="M138 137.471H136.373V124.98C136.373 122.248 135.238 119.696 133.18 117.792C131.17 115.933 128.535 114.945 125.757 115.022C125.525 115.026 125.321 115.034 125.116 115.048L125 113.505C125.234 113.488 125.472 113.479 125.711 113.476C128.936 113.384 131.986 114.529 134.314 116.682C136.691 118.88 138 121.827 138 124.98V137.471Z" fill="#E1E1E1"></path><path fill-rule="evenodd" clip-rule="evenodd" d="M89.5626 141.856H164.437V138.086H89.5626V141.856ZM165.219 143.471H88.7813C88.3493 143.471 88 143.109 88 142.663V137.278C88 136.833 88.3493 136.471 88.7813 136.471H165.219C165.651 136.471 166 136.833 166 137.278V142.663C166 143.109 165.651 143.471 165.219 143.471Z" fill="#E1E1E1"></path><path fill-rule="evenodd" clip-rule="evenodd" d="M104.182 137.471H97.8179C97.3656 137.471 97 137.126 97 136.701V119.471H98.6357V135.932H103.364V119.471H105V136.701C105 137.126 104.634 137.471 104.182 137.471Z" fill="#E1E1E1"></path><path fill-rule="evenodd" clip-rule="evenodd" d="M149.636 135.889H154.364V106.326C154.364 105.073 153.311 104.053 152.014 104.053H151.984C150.689 104.053 149.636 105.073 149.636 106.326V135.889ZM155.182 137.471H148.818C148.366 137.471 148 137.117 148 136.68V106.326C148 104.2 149.787 102.471 151.984 102.471H152.014C154.213 102.471 156 104.2 156 106.326V136.68C156 137.117 155.634 137.471 155.182 137.471Z" fill="#E1E1E1"></path><path fill-rule="evenodd" clip-rule="evenodd" d="M118 83.471H116.361V74.0051H114V72.471H117.18C117.634 72.471 118 72.8144 118 73.2381V83.471Z" fill="#E1E1E1"></path><path fill-rule="evenodd" clip-rule="evenodd" d="M130 82.471H128.385V73.9829H124.615V81.6305H123V73.227C123 72.8095 123.361 72.471 123.807 72.471H129.193C129.639 72.471 130 72.8095 130 73.227V82.471Z" fill="#E1E1E1"></path><path fill-rule="evenodd" clip-rule="evenodd" d="M143 84.471H141.386V74.0242H137.614V83.6076H136V73.2476C136 72.8187 136.361 72.471 136.807 72.471H142.19C142.637 72.471 143 72.8187 143 73.2476V84.471Z" fill="#E1E1E1"></path><path fill-rule="evenodd" clip-rule="evenodd" d="M129.07 108.471H127V106.883H128.14V104.059H127V102.471H129.07C129.581 102.471 130 102.827 130 103.265V107.677C130 108.116 129.581 108.471 129.07 108.471Z" fill="#E1E1E1"></path><path fill-rule="evenodd" clip-rule="evenodd" d="M135.587 106.883H138.413V104.059H135.587V106.883ZM139.206 108.471H134.794C134.355 108.471 134 108.116 134 107.677V103.265C134 102.827 134.355 102.471 134.794 102.471H139.206C139.643 102.471 140 102.827 140 103.265V107.677C140 108.116 139.643 108.471 139.206 108.471Z" fill="#E1E1E1"></path><path fill-rule="evenodd" clip-rule="evenodd" d="M148 85.471H146.447V67.0423H114V65.471H147.224C147.653 65.471 148 65.8228 148 66.2564V85.471Z" fill="#E1E1E1"></path><path fill-rule="evenodd" clip-rule="evenodd" d="M148 67.471H151V65.471H148V67.471Z" fill="#E1E1E1"></path><path fill-rule="evenodd" clip-rule="evenodd" d="M101 67.471H105V65.471H101V67.471Z" fill="#84C8F4"></path><path fill-rule="evenodd" clip-rule="evenodd" d="M131 66.471H129.348V66.3736C129.348 65.5361 128.535 64.8551 127.537 64.8551H125.466C124.467 64.8551 123.652 65.5361 123.652 66.3736V66.471H122V66.3736C122 64.7728 123.554 63.471 125.466 63.471H127.537C129.446 63.471 131 64.7728 131 66.3736V66.471Z" fill="#E1E1E1"></path><path fill-rule="evenodd" clip-rule="evenodd" d="M90 118.471V140.471L83 134.745L83.38 118.754L90 118.471Z" fill="#EEEEEE"></path><path fill-rule="evenodd" clip-rule="evenodd" d="M83 118.471V147.471L77.3269 143.804L72 147.471L72.4174 118.471H83Z" fill="#EEEEEE"></path><path fill-rule="evenodd" clip-rule="evenodd" d="M88.041 97.471L80.8846 100.82L77.0937 98.8661L78.1636 103.065L76 118.471H86.3213L89 111.701L88.041 97.471Z" fill="#EEEEEE"></path><path fill-rule="evenodd" clip-rule="evenodd" d="M42 94.471H68V92.471H42V94.471Z" fill="#00A5E8"></path><path fill-rule="evenodd" clip-rule="evenodd" d="M92.018 95.471L92 93.5482L103.982 93.471L104 95.3936L92.018 95.471Z" fill="#00A5E8"></path><path fill-rule="evenodd" clip-rule="evenodd" d="M44.1127 119.471C40.5888 119.471 36.9763 119.226 33.5254 115.727C28.078 110.205 29.4281 100.584 34.2735 95.6708C38.475 91.4112 45.3116 91.4112 49.5131 95.6708C52.951 99.1558 52.951 104.827 49.5131 108.312C48.1448 109.701 46.3229 110.465 44.3863 110.465C42.4498 110.465 40.6305 109.701 39.2595 108.312C36.9216 105.942 36.9216 102.085 39.2595 99.7149C40.203 98.7577 41.5349 98.2419 42.9215 98.3095C44.991 98.4055 46.6174 99.4785 47.269 101.18C47.8685 102.749 47.4984 104.532 46.3255 105.723C45.6478 106.409 44.6965 106.771 43.7087 106.728C42.2413 106.658 41.084 105.885 40.6175 104.66C40.1822 103.523 40.4507 102.232 41.303 101.37L42.6922 102.78C42.395 103.085 42.2986 103.539 42.4524 103.94C42.6348 104.42 43.1144 104.703 43.7999 104.735C44.2299 104.757 44.6522 104.598 44.9337 104.313C45.5566 103.681 45.7521 102.734 45.4341 101.901C45.0666 100.945 44.1179 100.362 42.8329 100.302C42.0015 100.268 41.2039 100.564 40.6513 101.125C39.0797 102.718 39.0797 105.309 40.6513 106.901C41.6496 107.913 42.9763 108.47 44.3863 108.47C45.799 108.47 47.1257 107.913 48.1213 106.901C49.4167 105.59 50.1283 103.846 50.1283 101.991C50.1283 100.136 49.4167 98.3925 48.1239 97.0812C44.6887 93.5998 39.1005 93.5993 35.6653 97.0812C31.4768 101.328 30.2674 109.602 34.9172 114.316C38.071 117.513 41.415 117.495 44.9624 117.473C45.2386 117.471 45.5149 117.47 45.7912 117.47H114.686C120.944 117.47 126.032 112.31 126.032 105.968C126.032 99.6256 120.944 94.4659 114.686 94.4659L109.896 94.5029L109.88 92.508L114.679 92.471C122.029 92.471 128 98.5257 128 105.968C128 113.41 122.029 119.464 114.686 119.464H45.7912C45.5201 119.464 45.2465 119.466 44.9728 119.468C44.6861 119.469 44.3994 119.471 44.1127 119.471Z" fill="#00A5E8"></path><path fill-rule="evenodd" clip-rule="evenodd" d="M76.6972 118.471L75 117.737C77.267 111.732 77.7689 105.218 76.4523 98.8984L78.2369 98.471C79.6359 105.181 79.1049 112.097 76.6972 118.471Z" fill="#00A5E8"></path><path fill-rule="evenodd" clip-rule="evenodd" d="M87.7035 119.471L86 118.724C88.4409 112.173 88.8303 104.813 87.0951 98.0021L88.8644 97.471C90.7091 104.702 90.2954 112.515 87.7035 119.471Z" fill="#00A5E8"></path><path fill-rule="evenodd" clip-rule="evenodd" d="M43 119.471V117.518C45.685 117.518 47.6453 116.691 48.9891 114.99C52.4582 110.605 50.5031 102.002 50.4825 101.916L52.3808 101.471C52.4711 101.861 54.5603 111.087 50.516 116.204C48.8008 118.372 46.2731 119.471 43 119.471Z" fill="#00A5E8"></path><path fill-rule="evenodd" clip-rule="evenodd" d="M84 150.471L77 145.116L70 150.471V118.471H72.0246V146.439L77 142.635L81.9728 146.439V118.471H84V150.471Z" fill="#00A5E8"></path><path fill-rule="evenodd" clip-rule="evenodd" d="M92 145.471L83 136.24L84.3783 134.827L90.0513 140.646V118.471H92V145.471Z" fill="#00A5E8"></path><path fill-rule="evenodd" clip-rule="evenodd" d="M109.854 86.471L109 84.7393L113.179 82.3549V62.471H115V83.534L109.854 86.471Z" fill="#00A5E8"></path><path fill-rule="evenodd" clip-rule="evenodd" d="M80.9643 101.471L46 83.4844V62.471H47.9456V82.2897L80.9489 99.2668L102.088 88.0056L103 89.7328L80.9643 101.471Z" fill="#00A5E8"></path><path fill-rule="evenodd" clip-rule="evenodd" d="M28 54.0809L79.586 27.471L130 54.0809L79.586 81.471L28 54.0809Z" fill="#EEEEEE"></path><path fill-rule="evenodd" clip-rule="evenodd" d="M30.2449 54.0914L80.1036 80.2622L128.831 54.0914L80.1036 28.6662L30.2449 54.0914ZM80.114 82.471L26 54.0664L80.114 26.471L133 54.0664L80.114 82.471Z" fill="#00A5E8"></path><path fill-rule="evenodd" clip-rule="evenodd" d="M108 84.471H106.002V68.2246C106.002 67.862 105.799 67.5312 105.471 67.3614L82 55.2013L82.934 53.471L106.405 65.6314C107.389 66.141 108 67.1344 108 68.2246V84.471Z" fill="#00A5E8"></path><path fill-rule="evenodd" clip-rule="evenodd" d="M106.5 85.3675C105.065 85.3675 103.897 86.5356 103.897 87.9709C103.897 89.4065 105.065 90.5745 106.5 90.5745C107.937 90.5745 109.103 89.4065 109.103 87.9709C109.103 86.5356 107.937 85.3675 106.5 85.3675ZM106.5 92.471C104.018 92.471 102 90.4522 102 87.9709C102 85.4899 104.018 83.471 106.5 83.471C108.982 83.471 111 85.4899 111 87.9709C111 90.4522 108.982 92.471 106.5 92.471Z" fill="#00A5E8"></path><path fill-rule="evenodd" clip-rule="evenodd" d="M112 108.471H102L103.684 91.471L105.642 91.6744L104.179 106.454H109.823L108.358 91.6744L110.319 91.471L112 108.471Z" fill="#00A5E8"></path></g><defs><clipPath id="clip0_65_40"><rect width="166" height="151" fill="white"></rect></clipPath></defs></svg>