<svg xmlns="http://www.w3.org/2000/svg" width="256" height="256" viewBox="0 0 256 256" fill="none"><g clip-path="url(#clip0_183_5)"><path d="M250.703 184.243L212.349 145.901C208.941 142.484 204.402 140.604 199.574 140.604C199.574 140.604 199.565 140.604 199.556 140.604C194.728 140.604 190.189 142.493 186.78 145.901L161.211 171.462L84.4941 94.7696L110.063 69.2085C117.116 62.1584 117.116 50.6794 110.054 43.6293L71.6914 5.28758C68.2827 1.88003 63.7439 0 58.9158 0C54.0786 0 49.5307 1.88907 46.1221 5.30565L7.75918 43.6564C6.59283 44.8133 -3.51553 55.75 1.28549 79.7836C6.94545 108.065 30.6341 143.225 71.6914 184.27C130.452 243.012 167.513 256.009 188.805 256.009C203.543 256.009 210.74 249.781 212.349 248.173L250.703 209.831C254.121 206.414 256.011 201.868 256.002 197.032C256.002 192.206 254.121 187.659 250.703 184.243ZM199.565 235.383C199.312 235.636 168.742 255.711 84.476 171.48C-1.60777 85.4328 20.58 56.4279 20.5438 56.437L58.9067 18.0772L97.2697 56.437L65.3081 88.3884C61.7729 91.9225 61.7729 97.6349 65.3081 101.169L154.81 190.642C158.345 194.176 164.059 194.176 167.594 190.642L199.556 158.681L237.919 197.041L199.565 235.383Z" fill="white"></path></g><defs><clipPath id="clip0_183_5"><rect width="256" height="256" fill="white"></rect></clipPath></defs></svg>