<svg xmlns="http://www.w3.org/2000/svg" width="500" height="700" viewBox="0 0 500 700" fill="none"><path d="M250 25C125.781 25 25 120.922 25 239.062C25 375 175 590.422 230.078 664.828C232.364 667.969 235.361 670.525 238.823 672.287C242.285 674.049 246.115 674.968 250 674.968C253.885 674.968 257.715 674.049 261.177 672.287C264.639 670.525 267.636 667.969 269.922 664.828C325 590.453 475 375.109 475 239.062C475 120.922 374.219 25 250 25Z" stroke="#00A5E8" stroke-width="50" stroke-linecap="round" stroke-linejoin="round"></path><path d="M250 325C291.421 325 325 291.421 325 250C325 208.579 291.421 175 250 175C208.579 175 175 208.579 175 250C175 291.421 208.579 325 250 325Z" stroke="#00A5E8" stroke-width="50" stroke-linecap="round" stroke-linejoin="round"></path></svg>