<svg xmlns="http://www.w3.org/2000/svg" width="359" height="322" viewBox="0 0 359 322" fill="none"><path fill-rule="evenodd" clip-rule="evenodd" d="M13.2779 227.209C12.9867 225.628 12.7116 223.999 12.4629 222.369L15.677 221.882C15.9209 223.48 16.19 225.075 16.4753 226.624L13.2779 227.209ZM15.332 236.801C14.9444 235.225 14.5746 233.615 14.2328 232.018L17.4125 231.343C17.7473 232.908 18.1101 234.486 18.4896 236.031L15.332 236.801ZM17.9524 246.259C17.4738 244.713 17.0093 243.129 16.5711 241.549L19.7051 240.687C20.1346 242.236 20.59 243.789 21.0589 245.304L17.9524 246.259ZM21.1315 255.541C20.5583 254.017 20 252.464 19.4731 250.923L22.5499 249.878C23.0672 251.388 23.6141 252.911 24.1761 254.406L21.1315 255.541Z" fill="#E1E1E1"></path><path fill-rule="evenodd" clip-rule="evenodd" d="M20.3672 151.075L17.2457 150.166C17.708 148.593 18.1957 147.015 18.6969 145.479L21.7894 146.479C21.2979 147.986 20.8194 149.532 20.3672 151.075ZM17.9357 160.379L14.7668 159.656C15.1334 158.059 15.5274 156.456 15.936 154.892L19.0823 155.708C18.6818 157.241 18.2959 158.812 17.9357 160.379ZM16.0598 169.811L12.8532 169.277C13.1229 167.669 13.4216 166.046 13.7382 164.452L16.9275 165.081C16.6164 166.644 16.3252 168.236 16.0598 169.811ZM14.7464 179.337L11.5139 178.991C11.6894 177.369 11.8902 175.732 12.1125 174.123L15.3336 174.564C15.1162 176.142 14.9186 177.747 14.7464 179.337ZM13.9944 188.924L10.7463 188.765C10.8271 187.135 10.932 185.489 11.0591 183.872L14.3012 184.125C14.1763 185.711 14.073 187.326 13.9944 188.924ZM13.7963 197.041L10.545 197.039C10.5456 195.911 10.5569 194.786 10.5789 193.664L13.8302 193.729C13.8081 194.83 13.7968 195.935 13.7963 197.041Z" fill="#E1E1E1"></path><path fill-rule="evenodd" clip-rule="evenodd" d="M98.6071 53.7992L97.032 50.9657C98.4639 50.176 99.9259 49.397 101.376 48.6529L102.866 51.5303C101.445 52.261 100.012 53.0239 98.6071 53.7992ZM90.3013 58.7048L88.5594 55.9694C89.9315 55.1036 91.3439 54.2404 92.7602 53.4046L94.4176 56.1909C93.0299 57.0101 91.6448 57.8556 90.3013 58.7048ZM82.2958 64.087L80.3989 61.4578C81.7349 60.5019 83.0941 59.5588 84.4398 58.6533L86.2592 61.3367C84.9399 62.2245 83.6065 63.1504 82.2958 64.087ZM74.6241 69.9271L72.5743 67.4132C73.8382 66.3918 75.1403 65.3705 76.4435 64.3787L78.4164 66.9516C77.1385 67.9246 75.8632 68.9256 74.6241 69.9271ZM67.3071 76.2036L65.1147 73.813C66.3204 72.7155 67.5596 71.6213 68.7971 70.5592L70.9196 73.0131C69.7052 74.0542 68.4897 75.1276 67.3071 76.2036ZM60.3723 82.8966L58.0415 80.6374C59.1762 79.4767 60.3497 78.3117 61.5275 77.1745L63.7899 79.5003C62.6342 80.6149 61.4839 81.7574 60.3723 82.8966ZM53.8386 89.9795L51.3807 87.8591C52.4573 86.6211 53.5597 85.3902 54.6578 84.2005L57.0516 86.3901C55.9761 87.5583 54.8941 88.7651 53.8386 89.9795ZM47.7322 97.4333L45.1538 95.4598C46.1475 94.172 47.1761 92.8778 48.2107 91.6152L50.7299 93.6627C49.7158 94.9006 48.707 96.1702 47.7322 97.4333ZM42.0758 105.229L39.3866 103.408C40.3065 102.06 41.2571 100.707 42.212 99.3913L44.8475 101.289C43.9109 102.579 42.978 103.905 42.0758 105.229Z" fill="#E1E1E1"></path><path fill-rule="evenodd" clip-rule="evenodd" d="M184.212 33.5253C182.599 33.4664 180.975 33.431 179.385 33.4187L179.409 30.1804C181.03 30.1928 182.686 30.2287 184.331 30.2887L184.212 33.5253ZM171.485 33.5414L171.355 30.3059C172.395 30.2641 173.44 30.2335 174.487 30.2115L174.553 33.4498C173.528 33.4701 172.505 33.5007 171.485 33.5414ZM193.849 34.1558C192.266 34.0063 190.646 33.876 189.033 33.7698L189.249 30.538C190.892 30.6469 192.543 30.7787 194.157 30.9315L193.849 34.1558ZM203.431 35.3477C201.842 35.1021 200.233 34.878 198.649 34.6812L199.051 31.4682C200.667 31.6682 202.309 31.8977 203.929 32.1475L203.431 35.3477Z" fill="#E1E1E1"></path><path fill-rule="evenodd" clip-rule="evenodd" d="M280.724 69.2704L280.282 68.9192L282.303 66.3828L282.759 66.7452L280.724 69.2704ZM288.081 75.5034C286.902 74.4424 285.679 73.3766 284.449 72.3349L286.556 69.8676C287.81 70.9302 289.056 72.0164 290.26 73.0983L288.081 75.5034ZM295.06 82.1504C293.935 81.0143 292.778 79.8793 291.62 78.7754L293.868 76.4352C295.048 77.5606 296.228 78.7186 297.375 79.8766L295.06 82.1504ZM301.638 89.1935C300.581 87.9937 299.492 86.7927 298.401 85.6245L300.782 83.4183C301.894 84.6107 303.005 85.8347 304.083 87.0576L301.638 89.1935ZM307.791 96.6072C306.804 95.344 305.787 94.082 304.769 92.8558L307.274 90.7923C308.313 92.042 309.349 93.3293 310.356 94.6181L307.791 96.6072ZM313.498 104.367C312.584 103.043 311.642 101.725 310.702 100.447L313.324 98.5319C314.283 99.8352 315.243 101.181 316.176 102.531L313.498 104.367Z" fill="#E1E1E1"></path><path fill-rule="evenodd" clip-rule="evenodd" d="M345.548 201.962L342.299 201.868C342.344 200.269 342.369 198.652 342.369 197.059H345.62C345.62 198.683 345.596 200.332 345.548 201.962ZM344.978 211.752L341.74 211.468C341.879 209.875 341.998 208.261 342.09 206.672L345.336 206.86C345.241 208.48 345.121 210.125 344.978 211.752ZM343.834 221.493L340.618 221.021C340.851 219.439 341.063 217.834 341.248 216.255L344.478 216.63C344.288 218.242 344.072 219.877 343.834 221.493ZM342.117 231.149L338.934 230.49C339.258 228.933 339.566 227.345 339.846 225.769L343.048 226.333C342.762 227.942 342.448 229.562 342.117 231.149ZM339.83 240.689L336.691 239.844C337.106 238.317 337.506 236.749 337.883 235.183L341.045 235.936C340.661 237.532 340.252 239.132 339.83 240.689Z" fill="#E1E1E1"></path><path fill-rule="evenodd" clip-rule="evenodd" d="M206.353 63.8838H219.212C220.109 63.8838 220.837 64.6087 220.837 65.5029V83.2457L239.71 64.361C240.015 64.0554 240.429 63.8838 240.862 63.8838H292.072V3.23823H206.353V63.8838ZM219.212 88.7866C219.002 88.7866 218.791 88.7464 218.59 88.6643C217.983 88.414 217.586 87.8232 217.586 87.1675V67.122H204.727C203.829 67.122 203.102 66.3972 203.102 65.5029V1.61912C203.102 0.72485 203.829 0 204.727 0H293.698C294.595 0 295.324 0.72485 295.324 1.61912V65.5029C295.324 66.3972 294.595 67.122 293.698 67.122H241.538L220.364 88.31C220.052 88.6215 219.635 88.7866 219.212 88.7866Z" fill="#E1E1E1"></path><path fill-rule="evenodd" clip-rule="evenodd" d="M237.833 23.8455H244.04V20.6073H237.833V23.8455Z" fill="#E1E1E1"></path><path fill-rule="evenodd" clip-rule="evenodd" d="M225.419 23.8455H231.626V20.6073H225.419V23.8455Z" fill="#E1E1E1"></path><path fill-rule="evenodd" clip-rule="evenodd" d="M262.661 23.8455H268.869V20.6073H262.661V23.8455Z" fill="#E1E1E1"></path><path fill-rule="evenodd" clip-rule="evenodd" d="M250.247 23.8455H256.454V20.6073H250.247V23.8455Z" fill="#E1E1E1"></path><path fill-rule="evenodd" clip-rule="evenodd" d="M275.076 23.8455H281.283V20.6073H275.076V23.8455Z" fill="#E1E1E1"></path><path fill-rule="evenodd" clip-rule="evenodd" d="M225.419 38.2712H273.007V35.033H225.419V38.2712Z" fill="#E1E1E1"></path><path fill-rule="evenodd" clip-rule="evenodd" d="M225.419 52.6963H250.247V49.4581H225.419V52.6963Z" fill="#E1E1E1"></path><path fill-rule="evenodd" clip-rule="evenodd" d="M38.7746 141.207C66.2607 141.749 87.6465 155.899 94.9629 161.415V90.7392C87.6879 96.5219 66.6278 111.111 38.7746 111.664V141.207ZM96.5885 166.399C96.2042 166.399 95.8242 166.263 95.5222 166.003C95.273 165.787 70.1655 144.43 37.1489 144.43C36.2511 144.43 35.5233 143.705 35.5233 142.81V110.06C35.5233 109.166 36.2511 108.441 37.1489 108.441C70.7721 108.441 95.2423 86.2876 95.485 86.0635C95.9604 85.6266 96.6504 85.5119 97.2399 85.7698C97.8314 86.0276 98.2142 86.6093 98.2142 87.2527V164.78C98.2142 165.414 97.8427 165.989 97.263 166.253C97.0472 166.351 96.8173 166.399 96.5885 166.399Z" fill="#E1E1E1"></path><path fill-rule="evenodd" clip-rule="evenodd" d="M7.61347 119.237C6.665 119.237 5.89255 120.007 5.89255 120.951V131.919C5.89255 132.864 6.665 133.633 7.61347 133.633H14.024V119.237H7.61347ZM15.6496 136.872H7.61347C4.87196 136.872 2.64128 134.65 2.64128 131.919V120.951C2.64128 118.221 4.87196 115.999 7.61347 115.999H15.6496C16.5469 115.999 17.2752 116.724 17.2752 117.618V135.253C17.2752 136.147 16.5469 136.872 15.6496 136.872Z" fill="#E1E1E1"></path><path fill-rule="evenodd" clip-rule="evenodd" d="M35.0253 111.679C29.3953 111.679 23.7282 112.17 18.1833 113.139L18.1042 113.153C17.6229 113.237 17.2752 113.649 17.2752 114.133V139.109C17.2752 139.607 17.6488 140.032 18.1435 140.095L18.6807 140.167C23.873 140.847 29.1612 141.191 34.3977 141.191H35.5232V111.679H35.0253ZM37.1489 144.43H34.3977C29.0196 144.43 23.5893 144.075 18.257 143.377L17.7204 143.306C15.613 143.031 14.0239 141.227 14.0239 139.109V114.133C14.0239 112.072 15.5026 110.319 17.5411 109.964L17.6197 109.95C23.3525 108.949 29.2075 108.441 35.0253 108.441H37.1489C38.0462 108.441 38.7745 109.166 38.7745 110.06V142.81C38.7745 143.705 38.0462 144.43 37.1489 144.43Z" fill="#E1E1E1"></path><path fill-rule="evenodd" clip-rule="evenodd" d="M99.7498 82.7084C98.9031 82.7084 98.2141 83.3947 98.2141 84.2386V167.372C98.2141 168.216 98.9031 168.902 99.7498 168.902C100.597 168.902 101.286 168.216 101.286 167.372V84.2386C101.286 83.3947 100.597 82.7084 99.7498 82.7084ZM99.7498 172.14C97.1101 172.14 94.9628 170.001 94.9628 167.372V84.2386C94.9628 81.6088 97.1101 79.4702 99.7498 79.4702C102.39 79.4702 104.537 81.6088 104.537 84.2386V167.372C104.537 170.001 102.39 172.14 99.7498 172.14Z" fill="#E1E1E1"></path><path fill-rule="evenodd" clip-rule="evenodd" d="M104.177 138.131V134.893C108.859 134.893 112.668 131.099 112.668 126.435V125.175C112.668 120.512 108.859 116.718 104.177 116.718V113.48C110.651 113.48 115.92 118.727 115.92 125.175V126.435C115.92 132.884 110.651 138.131 104.177 138.131Z" fill="#E1E1E1"></path><path fill-rule="evenodd" clip-rule="evenodd" d="M48.6005 194.314C45.1323 194.314 41.9477 192.099 40.8491 188.649L29.5762 153.277C29.4228 152.798 29.0492 152.411 28.5745 152.243L23.9554 150.603C23.3089 150.373 22.8761 149.762 22.8761 149.078V142.81H26.1274V147.936L29.6661 149.193C31.091 149.698 32.2155 150.858 32.6752 152.296L43.948 187.669C44.7426 190.165 47.3543 191.581 49.8902 190.904C51.2031 190.551 52.2813 189.701 52.9262 188.509C53.5727 187.316 53.6932 185.952 53.2669 184.666L43.2919 154.551C42.5226 152.231 43.6143 149.692 45.8299 148.644L48.1704 147.536V144.07H51.4217V148.56C51.4217 149.186 51.0605 149.755 50.4936 150.023L47.2246 151.569C46.4866 151.918 46.1233 152.763 46.3795 153.536L56.3551 183.65C57.0635 185.79 56.8627 188.062 55.7888 190.045C54.7149 192.029 52.9203 193.444 50.7364 194.031C50.0226 194.222 49.3062 194.313 48.6005 194.314Z" fill="#E1E1E1"></path><path fill-rule="evenodd" clip-rule="evenodd" d="M35.5561 164.125L34.7104 160.999L46.9678 157.709L47.8135 160.835L35.5561 164.125Z" fill="#E1E1E1"></path><path fill-rule="evenodd" clip-rule="evenodd" d="M37.4433 169.717L36.5971 166.591L48.8545 163.301L49.7007 166.428L37.4433 169.717Z" fill="#E1E1E1"></path><path fill-rule="evenodd" clip-rule="evenodd" d="M356.98 197.423H279.756V194.185H355.355V108.189H255.329V104.95H356.98C357.879 104.95 358.606 105.675 358.606 106.57V195.804C358.606 196.698 357.879 197.423 356.98 197.423Z" fill="#E1E1E1"></path><path fill-rule="evenodd" clip-rule="evenodd" d="M296.01 163.921C293.946 163.921 291.882 163.159 290.272 161.636L254.19 126.33L256.467 124.02L292.531 159.308C294.475 161.147 297.547 161.144 299.509 159.289L355.888 105.914L358.127 108.26L301.749 161.636C300.14 163.159 298.075 163.921 296.01 163.921Z" fill="#E1E1E1"></path><path fill-rule="evenodd" clip-rule="evenodd" d="M258.481 175.08L256.135 172.838L278.583 149.527L280.929 151.769L258.481 175.08Z" fill="#E1E1E1"></path><path fill-rule="evenodd" clip-rule="evenodd" d="M355.861 196.356L311.118 151.794L313.416 149.505L358.159 194.066L355.861 196.356Z" fill="#E1E1E1"></path><path fill-rule="evenodd" clip-rule="evenodd" d="M317.085 235.569C302.901 235.569 291.362 247.062 291.362 261.188C291.362 275.314 302.901 286.807 317.085 286.807C331.267 286.807 342.806 275.314 342.806 261.188C342.806 247.062 331.267 235.569 317.085 235.569ZM317.085 290.045C301.108 290.045 288.111 277.1 288.111 261.188C288.111 245.276 301.108 232.33 317.085 232.33C333.06 232.33 346.058 245.276 346.058 261.188C346.058 277.1 333.06 290.045 317.085 290.045Z" fill="#E1E1E1"></path><path fill-rule="evenodd" clip-rule="evenodd" d="M101.977 40.6698C104.039 58.7996 120.561 71.878 138.799 69.8188C147.636 68.8226 155.555 64.4649 161.098 57.5499C166.639 50.6354 169.142 41.9903 168.143 33.2085C166.082 15.0797 149.559 2.00028 131.323 4.05956C113.081 6.11777 99.9168 22.5405 101.977 40.6698ZM135.018 73.2704C116.695 73.2704 100.852 59.554 98.7471 41.0339C96.4846 21.1305 110.934 3.10042 130.958 0.841699C150.963 -1.4197 169.11 12.94 171.374 32.845C172.47 42.4868 169.723 51.9784 163.639 59.5695C157.555 67.1601 148.863 71.9434 139.164 73.0366C137.773 73.1937 136.387 73.2704 135.018 73.2704Z" fill="#E1E1E1"></path><path fill-rule="evenodd" clip-rule="evenodd" d="M131.355 38.4229C131.414 40.539 131.761 42.1061 132.397 43.1205C133.031 44.1349 133.919 44.5798 135.058 44.4512C135.824 44.3649 136.489 43.9456 137.056 43.1977C137.622 42.4455 138.045 41.4183 138.325 40.1123L138.048 28.9677C137.545 28.8937 137.033 28.8857 136.512 28.9447C134.688 29.15 133.364 30.0126 132.539 31.5358C131.715 33.0589 131.32 35.3536 131.355 38.4229ZM155.463 32.8809C155.78 37.1233 155.104 40.6093 153.436 43.3382C151.767 46.0671 149.304 47.6154 146.048 47.9821C144.713 48.1328 143.499 47.9789 142.408 47.52C141.317 47.0611 140.427 46.3378 139.737 45.3503C138.384 47.6664 136.364 48.9761 133.678 49.279C132.115 49.4549 130.695 49.152 129.419 48.3698C128.142 47.5875 127.135 46.3855 126.399 44.7637C125.662 43.1425 125.278 41.2515 125.247 39.0909C125.275 34.9895 126.217 31.5888 128.07 28.8884C129.923 26.1879 132.397 24.6631 135.491 24.3141C137.884 24.0444 140.006 24.3623 141.858 25.2684L143.512 26.1144L143.886 40.5053C143.865 42.7865 144.775 43.8228 146.615 43.6154C147.999 43.4593 149.059 42.4503 149.796 40.5889C150.533 38.7274 150.794 36.4237 150.581 33.6771C150.244 28.2402 148.641 24.1918 145.774 21.5316C142.908 18.8718 139.032 17.8172 134.147 18.3679C131.037 18.7185 128.363 19.8192 126.123 21.6699C123.885 23.5206 122.226 25.9697 121.145 29.0176C120.065 32.0655 119.646 35.4442 119.886 39.1547C120.269 44.8485 121.902 49.0533 124.783 51.7694C127.665 54.4854 131.646 55.5566 136.726 54.984C138.093 54.8296 139.525 54.5085 141.019 54.0201C142.514 53.5322 143.718 53.0234 144.631 52.4942L145.993 56.4219C145.073 57.1816 143.793 57.8545 142.153 58.4415C140.512 59.0275 138.846 59.4162 137.152 59.6076C132.707 60.1089 128.854 59.6864 125.592 58.3413C122.331 56.9967 119.762 54.7492 117.887 51.6005C116.012 48.4513 114.887 44.5048 114.512 39.7606C114.2 35.2715 114.783 31.153 116.262 27.4043C117.741 23.6562 120.002 20.6309 123.048 18.3287C126.092 16.0266 129.666 14.6439 133.77 14.1812C137.873 13.7185 141.511 14.1651 144.683 15.5199C147.855 16.8753 150.37 19.0546 152.229 22.058C154.088 25.0615 155.166 28.6691 155.463 32.8809Z" fill="#E1E1E1"></path><path fill-rule="evenodd" clip-rule="evenodd" d="M3.446 210.539C4.46714 215.33 9.21216 218.403 14.0218 217.385C18.8319 216.369 21.9158 211.643 20.8958 206.852C19.8746 202.06 15.1296 198.989 10.32 200.006C5.5098 201.022 2.42648 205.748 3.446 210.539ZM12.169 220.818C6.54494 220.818 1.47909 216.905 0.26632 211.211C-1.12624 204.674 3.08104 198.225 9.64549 196.839C16.2094 195.448 22.6823 199.643 24.0754 206.181C25.4674 212.718 21.2607 219.166 14.6963 220.553C13.849 220.732 13.0023 220.818 12.169 220.818Z" fill="#E1E1E1"></path><path fill-rule="evenodd" clip-rule="evenodd" d="M314.07 262.018C313.929 263.673 314.06 264.926 314.465 265.773C314.869 266.62 315.52 267.045 316.419 267.045C317.022 267.045 317.577 266.776 318.084 266.243C318.591 265.706 319.011 264.942 319.345 263.948L320.115 255.234C319.73 255.132 319.332 255.081 318.921 255.081C317.484 255.081 316.377 255.637 315.6 256.752C314.824 257.867 314.314 259.622 314.07 262.018ZM333.32 259.817C333.192 263.153 332.358 265.812 330.818 267.793C329.278 269.774 327.224 270.765 324.658 270.765C323.605 270.765 322.675 270.538 321.867 270.084C321.058 269.63 320.429 268.988 319.98 268.157C318.722 269.844 317.034 270.688 314.917 270.688C313.685 270.688 312.607 270.327 311.683 269.605C310.759 268.882 310.082 267.857 309.652 266.528C309.222 265.198 309.09 263.69 309.257 262.002C309.643 258.807 310.676 256.238 312.357 254.295C314.038 252.352 316.098 251.38 318.536 251.38C320.422 251.38 322.047 251.815 323.406 252.684L324.619 253.489L323.638 264.744C323.419 266.521 324.035 267.409 325.486 267.409C326.576 267.409 327.491 266.716 328.229 265.329C328.967 263.942 329.374 262.169 329.451 260.008C329.669 255.739 328.781 252.441 326.785 250.115C324.789 247.788 321.867 246.625 318.016 246.625C315.565 246.625 313.387 247.249 311.481 248.495C309.575 249.741 308.067 251.505 306.957 253.786C305.847 256.068 305.221 258.666 305.08 261.581C304.875 266.054 305.773 269.476 307.775 271.848C309.777 274.219 312.78 275.404 316.784 275.404C317.862 275.404 319.005 275.28 320.211 275.031C321.417 274.781 322.399 274.491 323.156 274.158L323.869 277.341C323.086 277.852 322.03 278.265 320.702 278.578C319.373 278.891 318.042 279.047 316.707 279.047C313.203 279.047 310.242 278.38 307.823 277.044C305.404 275.708 303.604 273.73 302.424 271.109C301.243 268.489 300.717 265.313 300.845 261.581C300.999 258.053 301.817 254.892 303.299 252.099C304.781 249.306 306.809 247.146 309.383 245.618C311.956 244.092 314.859 243.328 318.093 243.328C321.327 243.328 324.119 243.996 326.467 245.331C328.816 246.667 330.581 248.588 331.761 251.092C332.942 253.598 333.462 256.506 333.32 259.817Z" fill="#E1E1E1"></path><path fill-rule="evenodd" clip-rule="evenodd" d="M277.886 320.907L192.851 261.439C189.374 259.007 184.703 259.01 181.23 261.449L96.4926 320.905L94.1522 317.596L178.889 258.139C183.762 254.721 190.311 254.717 195.186 258.127L280.222 317.594L277.886 320.907Z" fill="#00A5E8"></path><path fill-rule="evenodd" clip-rule="evenodd" d="M279.681 322H95.4834C94.361 322 93.4513 321.094 93.4513 319.977V194.239C93.4513 193.579 93.7738 192.962 94.3153 192.583L121.386 173.635L123.723 176.948L97.5154 195.29V317.952H277.649V195.292L253.067 178.145L255.399 174.829L280.847 192.581C281.39 192.96 281.713 193.579 281.713 194.239V319.977C281.713 321.094 280.804 322 279.681 322Z" fill="#00A5E8"></path><path fill-rule="evenodd" clip-rule="evenodd" d="M206.685 268.372L203.825 265.498L277.624 192.619L280.485 195.493L206.685 268.372Z" fill="#00A5E8"></path><path fill-rule="evenodd" clip-rule="evenodd" d="M166.773 267.465L93.8922 195.493L96.7527 192.619L169.633 264.591L166.773 267.465Z" fill="#00A5E8"></path><path fill-rule="evenodd" clip-rule="evenodd" d="M125.495 222.441H121.431V101.683C121.431 100.565 122.341 99.6593 123.463 99.6593H254.034C255.156 99.6593 256.066 100.565 256.066 101.683V220.119H252.002V103.707H125.495V222.441Z" fill="#00A5E8"></path><path fill-rule="evenodd" clip-rule="evenodd" d="M139.784 145.509H235.38V141.461H139.784V145.509Z" fill="#ABABAB"></path><path fill-rule="evenodd" clip-rule="evenodd" d="M207.401 161.765H219.06V157.717H207.401V161.765Z" fill="#ABABAB"></path><path fill-rule="evenodd" clip-rule="evenodd" d="M139.784 161.765H195.743V157.717H139.784V161.765Z" fill="#ABABAB"></path><path fill-rule="evenodd" clip-rule="evenodd" d="M179.422 178.02H235.38V173.972H179.422V178.02Z" fill="#ABABAB"></path><path fill-rule="evenodd" clip-rule="evenodd" d="M139.784 178.02H163.101V173.972H139.784V178.02Z" fill="#ABABAB"></path><path fill-rule="evenodd" clip-rule="evenodd" d="M139.784 210.532H193.411V206.484H139.784V210.532Z" fill="#ABABAB"></path><path fill-rule="evenodd" clip-rule="evenodd" d="M156.106 226.787H214.397V222.74H156.106V226.787Z" fill="#ABABAB"></path><path fill-rule="evenodd" clip-rule="evenodd" d="M214.396 210.532H221.391V206.484H214.396V210.532Z" fill="#ABABAB"></path><path fill-rule="evenodd" clip-rule="evenodd" d="M228.386 210.532H235.38V206.484H228.386V210.532Z" fill="#ABABAB"></path><path fill-rule="evenodd" clip-rule="evenodd" d="M200.406 210.532H207.401V206.484H200.406V210.532Z" fill="#ABABAB"></path><path fill-rule="evenodd" clip-rule="evenodd" d="M163.101 129.253H170.095V125.205H163.101V129.253Z" fill="#ABABAB"></path><path fill-rule="evenodd" clip-rule="evenodd" d="M149.111 129.253H156.106V125.205H149.111V129.253Z" fill="#ABABAB"></path><path fill-rule="evenodd" clip-rule="evenodd" d="M191.08 129.253H198.075V125.205H191.08V129.253Z" fill="#ABABAB"></path><path fill-rule="evenodd" clip-rule="evenodd" d="M177.09 129.253H184.085V125.205H177.09V129.253Z" fill="#ABABAB"></path><path fill-rule="evenodd" clip-rule="evenodd" d="M219.06 129.253H226.054V125.205H219.06V129.253Z" fill="#ABABAB"></path><path fill-rule="evenodd" clip-rule="evenodd" d="M205.07 129.253H212.064V125.205H205.07V129.253Z" fill="#ABABAB"></path><path fill-rule="evenodd" clip-rule="evenodd" d="M34.3014 236.957L185.709 191.51L155.842 304.301L114.361 281.577L85.7388 299.343L73.2941 258.854L34.3014 236.957Z" fill="#EEEEEE"></path><path fill-rule="evenodd" clip-rule="evenodd" d="M155.262 306.297C154.927 306.297 154.594 306.215 154.292 306.052L92.6299 272.732L94.5683 269.174L153.976 301.276L183.031 195.299L38.1275 238.714L74.0971 258.296L72.1475 261.848L31.9162 239.945C31.197 239.553 30.7852 238.771 30.8698 237.959C30.9548 237.148 31.5211 236.466 32.3059 236.231L185.373 190.371C186.078 190.158 186.848 190.346 187.377 190.86C187.905 191.373 188.113 192.132 187.919 192.842L157.222 304.806C157.058 305.402 156.63 305.891 156.059 306.134C155.804 306.243 155.532 306.297 155.262 306.297Z" fill="#00A5E8"></path><path fill-rule="evenodd" clip-rule="evenodd" d="M86.402 302.165C86.1721 302.165 85.9412 302.127 85.7194 302.047C85.1289 301.838 84.6687 301.369 84.4722 300.775L71.199 260.7C70.9024 259.803 71.2674 258.821 72.0797 258.333L184.909 190.576L187.007 194.042L75.5662 260.965L87.5141 297.038L112.689 281.081L114.871 284.497L87.4925 301.849C87.1636 302.058 86.7836 302.165 86.402 302.165Z" fill="#00A5E8"></path><path fill-rule="evenodd" clip-rule="evenodd" d="M88.3683 300.651L84.4361 299.632L92.3183 269.471C92.4259 269.057 92.6633 268.688 92.996 268.416L183.037 194.875L185.614 198.006L96.0847 271.129L88.3683 300.651Z" fill="#00A5E8"></path><path fill-rule="evenodd" clip-rule="evenodd" d="M41.4853 287.365L39.231 283.997L62.4604 268.573L64.7147 271.94L41.4853 287.365Z" fill="#00A5E8"></path><path fill-rule="evenodd" clip-rule="evenodd" d="M45.4176 311.562L43.041 308.278L66.8238 291.201L69.2003 294.485L45.4176 311.562Z" fill="#00A5E8"></path></svg>